<svg width="54" height="56" viewBox="0 0 54 56" fill="none" xmlns="http://www.w3.org/2000/svg">
<path d="M33.8452 0.837402C33.9884 0.909016 34.1496 0.97168 34.3286 1.02539C34.5077 1.0791 34.6688 1.15967 34.812 1.26709C35.3491 1.55355 35.752 1.92952 36.0205 2.39502C36.2891 2.86052 36.4233 3.39762 36.4233 4.00635C36.4233 5.18799 36.4233 6.38753 36.4233 7.60498C36.4233 8.82243 36.4233 10.0399 36.4233 11.2573C36.4233 11.5438 36.3517 11.7676 36.2085 11.9287C36.0653 12.0898 35.8862 12.1883 35.6714 12.2241C35.4207 12.2241 35.2238 12.1346 35.0806 11.9556C34.9373 11.7765 34.8657 11.5259 34.8657 11.2036C34.8657 10.0578 34.8657 8.903 34.8657 7.73926C34.8657 6.57552 34.8657 5.40283 34.8657 4.22119C34.8657 3.61247 34.7135 3.15593 34.4092 2.85156C34.1048 2.5472 33.6483 2.39502 33.0396 2.39502C30.7837 2.39502 28.5278 2.39502 26.272 2.39502C24.0161 2.39502 21.7513 2.39502 19.4775 2.39502C17.2038 2.39502 14.939 2.39502 12.6831 2.39502C10.4272 2.39502 8.17139 2.39502 5.91553 2.39502C5.3068 2.39502 4.85026 2.5472 4.5459 2.85156C4.24154 3.15593 4.08936 3.59456 4.08936 4.16748C4.08936 8.10628 4.08936 12.0451 4.08936 15.9839C4.08936 19.9227 4.08936 23.8615 4.08936 27.8003C4.08936 31.7391 4.08936 35.6779 4.08936 39.6167C4.08936 43.5555 4.08936 47.4943 4.08936 51.4331C4.08936 52.006 4.24154 52.4447 4.5459 52.749C4.85026 53.0534 5.3068 53.2056 5.91553 53.2056C8.17139 53.2056 10.4272 53.2056 12.6831 53.2056C14.9748 53.2056 17.2485 53.2056 19.5044 53.2056C21.7603 53.2056 24.034 53.2056 26.3257 53.2056C28.5815 53.2056 30.8374 53.2056 33.0933 53.2056C33.6662 53.2056 34.1048 53.0534 34.4092 52.749C34.7135 52.4447 34.8657 52.006 34.8657 51.4331C34.8657 49.4995 34.8657 47.5838 34.8657 45.686C34.8657 43.7882 34.8657 41.8905 34.8657 39.9927C34.8657 39.8853 34.8657 39.7868 34.8657 39.6973C34.8657 39.6077 34.8836 39.5093 34.9194 39.4019C34.991 39.2228 35.0806 39.0796 35.188 38.9722C35.2954 38.8647 35.4565 38.811 35.6714 38.811C35.8504 38.811 36.0026 38.8647 36.1279 38.9722C36.2533 39.0796 36.3338 39.2049 36.3696 39.3481C36.4054 39.4556 36.4233 39.563 36.4233 39.6704C36.4233 39.7778 36.4233 39.8853 36.4233 39.9927C36.4233 41.8188 36.4233 43.6361 36.4233 45.4443C36.4233 47.2526 36.4233 49.0519 36.4233 50.8423C36.4233 51.9881 36.2533 52.8206 35.9131 53.3398C35.5729 53.859 34.8836 54.3156 33.8452 54.7095C31.4461 54.7095 29.047 54.7095 26.6479 54.7095C24.2847 54.7095 21.9035 54.7095 19.5044 54.7095C17.1053 54.7095 14.7241 54.7095 12.3608 54.7095C9.96175 54.7095 7.56266 54.7095 5.16357 54.7095C4.12516 54.3156 3.43587 53.859 3.0957 53.3398C2.75553 52.8206 2.58545 51.9881 2.58545 50.8423C2.58545 46.9751 2.58545 43.1258 2.58545 39.2944C2.58545 35.4272 2.58545 31.5601 2.58545 27.6929C2.58545 23.8257 2.58545 19.9585 2.58545 16.0913C2.58545 12.2599 2.58545 8.41064 2.58545 4.54346C2.58545 4.43604 2.58545 4.32861 2.58545 4.22119C2.58545 4.11377 2.58545 4.00635 2.58545 3.89893C2.58545 3.46924 2.66602 3.05745 2.82715 2.66357C2.98828 2.2697 3.24788 1.92952 3.60596 1.64307C3.85661 1.46403 4.11621 1.31185 4.38477 1.18652C4.65332 1.0612 4.91292 0.944824 5.16357 0.837402C7.56266 0.837402 9.96175 0.837402 12.3608 0.837402C14.7241 0.837402 17.1053 0.837402 19.5044 0.837402C21.9035 0.837402 24.2847 0.837402 26.6479 0.837402C29.047 0.837402 31.4461 0.837402 33.8452 0.837402ZM20.2563 37.7368C20.2563 37.9517 20.2563 38.1396 20.2563 38.3008C20.2563 38.4619 20.2563 38.6141 20.2563 38.7573C20.2563 39.008 20.1758 39.2139 20.0146 39.375C19.8535 39.5361 19.6655 39.5988 19.4507 39.563C19.2 39.563 19.012 39.5003 18.8867 39.375C18.7614 39.2497 18.6987 39.0438 18.6987 38.7573C18.6987 36.5373 18.6987 34.3351 18.6987 32.1509C18.6987 29.9308 18.6987 27.7108 18.6987 25.4907C18.6987 23.2707 18.6987 21.0506 18.6987 18.8306C18.6987 16.6105 18.6987 14.3905 18.6987 12.1704C18.6987 12.0272 18.7077 11.884 18.7256 11.7407C18.7435 11.5975 18.7703 11.4543 18.8062 11.311C18.8778 11.132 18.9762 10.9888 19.1016 10.8813C19.2269 10.7739 19.3791 10.7381 19.5581 10.7739C19.7729 10.8097 19.9341 10.8903 20.0415 11.0156C20.1489 11.1409 20.2026 11.2931 20.2026 11.4722C20.2384 11.7586 20.2474 12.0361 20.2295 12.3047C20.2116 12.5732 20.2026 12.8507 20.2026 13.1372C20.3459 13.1372 20.4801 13.1372 20.6055 13.1372C20.7308 13.1372 20.8472 13.1372 20.9546 13.1372C23.2463 13.1372 25.5379 13.1372 27.8296 13.1372C30.1571 13.1372 32.4756 13.1372 34.7852 13.1372C37.0947 13.1372 39.3953 13.1372 41.687 13.1372C44.0145 13.1372 46.3241 13.1372 48.6157 13.1372C48.7948 13.1372 48.9738 13.1462 49.1528 13.1641C49.3319 13.182 49.493 13.2088 49.6362 13.2446C50.245 13.3879 50.7194 13.6833 51.0596 14.1309C51.3997 14.5784 51.5698 15.1066 51.5698 15.7153C51.5698 17.3625 51.5698 18.9917 51.5698 20.603C51.5698 22.2144 51.5698 23.8257 51.5698 25.437C51.5698 27.0483 51.5698 28.6597 51.5698 30.271C51.5698 31.8823 51.5698 33.4937 51.5698 35.105C51.5698 35.9285 51.3192 36.5731 50.8179 37.0386C50.3166 37.5041 49.6362 37.7368 48.7769 37.7368C47.1297 37.7368 45.4647 37.7368 43.7817 37.7368C42.1346 37.7368 40.4785 37.7368 38.8135 37.7368C37.1484 37.7368 35.4924 37.7368 33.8452 37.7368C32.1623 37.7368 30.4972 37.7368 28.8501 37.7368C27.5252 37.7368 26.2004 37.7368 24.8755 37.7368C23.5506 37.7368 22.2257 37.7368 20.9009 37.7368C20.7935 37.7368 20.686 37.7368 20.5786 37.7368C20.4712 37.7368 20.3638 37.7368 20.2563 37.7368ZM20.2563 17.2729C20.2563 19.9943 20.2563 22.7157 20.2563 25.437C20.2563 28.1584 20.2563 30.8797 20.2563 33.6011C20.3638 33.6011 20.4533 33.61 20.5249 33.6279C20.5965 33.6458 20.6502 33.6548 20.686 33.6548C22.6554 33.6548 24.6248 33.6548 26.5942 33.6548C28.5636 33.6548 30.533 33.6548 32.5024 33.6548C34.4718 33.6548 36.4412 33.6548 38.4106 33.6548C40.38 33.6548 42.3494 33.6548 44.3188 33.6548C44.4621 33.6548 44.5784 33.6279 44.668 33.5742C44.7575 33.5205 44.856 33.4041 44.9634 33.2251C45.214 32.688 45.5542 32.2135 45.9839 31.8018C46.4136 31.39 46.897 31.0409 47.4341 30.7544C47.5773 30.6828 47.6758 30.6022 47.7295 30.5127C47.7832 30.4232 47.8101 30.2889 47.8101 30.1099C47.7743 28.5702 47.7563 27.0215 47.7563 25.4639C47.7563 23.9062 47.7743 22.3397 47.8101 20.7642C47.8101 20.5851 47.7743 20.4508 47.7026 20.3613C47.631 20.2718 47.5236 20.1912 47.3804 20.1196C46.8791 19.8332 46.4225 19.493 46.0107 19.0991C45.599 18.7052 45.2677 18.2576 45.0171 17.7563C44.9097 17.5415 44.7843 17.3983 44.6411 17.3267C44.4979 17.255 44.3188 17.2192 44.104 17.2192C42.1704 17.255 40.2368 17.2729 38.3032 17.2729C36.3696 17.2729 34.445 17.2729 32.5293 17.2729C30.6136 17.2729 28.689 17.2729 26.7554 17.2729C24.8218 17.2729 22.8882 17.2729 20.9546 17.2729C20.8472 17.2729 20.7397 17.2729 20.6323 17.2729C20.5249 17.2729 20.3996 17.2729 20.2563 17.2729ZM20.2563 36.1792C20.3638 36.215 20.4533 36.2329 20.5249 36.2329C20.5965 36.2329 20.6681 36.2329 20.7397 36.2329C23.0672 36.2329 25.4126 36.2329 27.7759 36.2329C30.1034 36.2329 32.4308 36.2329 34.7583 36.2329C37.0858 36.2329 39.4132 36.2329 41.7407 36.2329C44.104 36.2329 46.4494 36.2329 48.7769 36.2329C49.2424 36.2329 49.5736 36.1344 49.7705 35.9375C49.9674 35.7406 50.0659 35.3914 50.0659 34.8901C50.0659 33.3146 50.0659 31.7391 50.0659 30.1636C50.0659 28.5881 50.0659 27.0125 50.0659 25.437C50.0659 23.8615 50.0659 22.286 50.0659 20.7104C50.0659 19.1349 50.0659 17.5594 50.0659 15.9839C50.0659 15.4826 49.9674 15.1335 49.7705 14.9365C49.5736 14.7396 49.2065 14.6411 48.6694 14.6411C46.342 14.6411 44.0324 14.6411 41.7407 14.6411C39.4132 14.6411 37.0858 14.6411 34.7583 14.6411C32.4308 14.6411 30.1034 14.6411 27.7759 14.6411C25.4484 14.6411 23.1209 14.6411 20.7935 14.6411C20.7218 14.6411 20.6413 14.6501 20.5518 14.668C20.4622 14.6859 20.3638 14.6948 20.2563 14.6948C20.2563 14.8739 20.2563 15.0439 20.2563 15.2051C20.2563 15.3662 20.2563 15.5363 20.2563 15.7153C20.3996 15.7153 20.5249 15.7153 20.6323 15.7153C20.7397 15.7153 20.8651 15.7153 21.0083 15.7153C22.9419 15.7153 24.8934 15.7153 26.8628 15.7153C28.7964 15.7153 30.7479 15.7153 32.7173 15.7153C34.6867 15.7153 36.6382 15.7153 38.5718 15.7153C40.5412 15.7153 42.5106 15.7153 44.48 15.7153C44.8739 15.7153 45.214 15.7959 45.5005 15.957C45.7869 16.1182 46.0197 16.3957 46.1987 16.7896C46.4136 17.255 46.7 17.6668 47.0581 18.0249C47.4162 18.383 47.8459 18.6694 48.3472 18.8843C48.6694 19.0633 48.9111 19.2782 49.0723 19.5288C49.2334 19.7795 49.314 20.1017 49.314 20.4956C49.2782 22.1427 49.2603 23.7899 49.2603 25.437C49.2603 27.0841 49.2782 28.7492 49.314 30.4321C49.314 30.826 49.2334 31.1483 49.0723 31.3989C48.9111 31.6496 48.6694 31.8465 48.3472 31.9897C47.8459 32.2404 47.4251 32.5358 47.085 32.876C46.7448 33.2161 46.4673 33.619 46.2524 34.0845C46.0376 34.5142 45.778 34.8096 45.4736 34.9707C45.1693 35.1318 44.8022 35.2124 44.3726 35.2124C42.4032 35.2124 40.4517 35.2124 38.5181 35.2124C36.5487 35.2124 34.5882 35.2124 32.6367 35.2124C30.6852 35.2124 28.7248 35.2124 26.7554 35.2124C24.786 35.2124 22.8345 35.2124 20.9009 35.2124C20.7935 35.2124 20.686 35.2124 20.5786 35.2124C20.4712 35.2124 20.3638 35.2124 20.2563 35.2124C20.2563 35.3914 20.2563 35.5526 20.2563 35.6958C20.2563 35.839 20.2563 36.0002 20.2563 36.1792ZM31.6968 9.59229C29.6558 9.59229 27.6147 9.59229 25.5737 9.59229C23.5685 9.59229 21.5454 9.59229 19.5044 9.59229C17.4634 9.59229 15.4224 9.59229 13.3813 9.59229C11.3403 9.59229 9.29932 9.59229 7.2583 9.59229C7.2583 9.69971 7.2583 9.79818 7.2583 9.8877C7.2583 9.97721 7.2583 10.0578 7.2583 10.1294C7.2583 12.994 7.2583 15.8407 7.2583 18.6694C7.2583 21.534 7.2583 24.3807 7.2583 27.2095C7.2583 30.0382 7.2583 32.8849 7.2583 35.7495C7.2583 38.5783 7.2583 41.425 7.2583 44.2896C7.2583 44.6118 7.28516 44.7998 7.33887 44.8535C7.39258 44.9072 7.59847 44.9341 7.95654 44.9341C9.89014 44.9341 11.8058 44.9341 13.7036 44.9341C15.6372 44.9341 17.5618 44.9341 19.4775 44.9341C21.3932 44.9341 23.3179 44.9341 25.2515 44.9341C27.1493 44.9341 29.0649 44.9341 30.9985 44.9341C31.3566 44.9341 31.5625 44.9072 31.6162 44.8535C31.6699 44.7998 31.6968 44.5939 31.6968 44.2358C31.6968 43.4839 31.6968 42.7409 31.6968 42.0068C31.6968 41.2728 31.6968 40.5298 31.6968 39.7778C31.6968 39.4556 31.7684 39.2139 31.9116 39.0527C32.0548 38.8916 32.2339 38.811 32.4487 38.811C32.6994 38.811 32.8874 38.8916 33.0127 39.0527C33.138 39.2139 33.2186 39.4556 33.2544 39.7778C33.2544 40.5656 33.2544 41.3623 33.2544 42.168C33.2544 42.9736 33.2544 43.7882 33.2544 44.6118C33.2186 45.1847 33.0396 45.6323 32.7173 45.9546C32.395 46.2769 31.9474 46.4559 31.3745 46.4917C30.9806 46.4917 30.5868 46.4917 30.1929 46.4917C29.799 46.4917 29.4051 46.4917 29.0112 46.4917C27.2567 46.4917 25.5021 46.4917 23.7476 46.4917C21.993 46.4917 20.2474 46.4917 18.5107 46.4917C16.7741 46.4917 15.0285 46.4917 13.2739 46.4917C11.5194 46.4917 9.76481 46.4917 8.01025 46.4917C7.86702 46.4917 7.7238 46.4917 7.58057 46.4917C7.43734 46.4917 7.29411 46.4738 7.15088 46.438C6.79281 46.3664 6.4974 46.2231 6.26465 46.0083C6.0319 45.7935 5.87972 45.507 5.80811 45.1489C5.7723 45.0415 5.74544 44.9162 5.72754 44.7729C5.70964 44.6297 5.70068 44.4865 5.70068 44.3433C5.70068 41.1564 5.70068 37.9696 5.70068 34.7827C5.70068 31.5601 5.70068 28.3553 5.70068 25.1685C5.70068 21.9816 5.70068 18.7948 5.70068 15.6079C5.70068 12.4211 5.70068 9.21631 5.70068 5.99365C5.70068 5.88623 5.70964 5.76091 5.72754 5.61768C5.74544 5.47445 5.75439 5.34912 5.75439 5.2417C5.86182 4.84782 6.0498 4.5345 6.31836 4.30176C6.58691 4.06901 6.90023 3.93473 7.2583 3.89893C7.36572 3.89893 7.46419 3.89893 7.55371 3.89893C7.64323 3.89893 7.7238 3.89893 7.79541 3.89893C9.729 3.89893 11.6805 3.89893 13.6499 3.89893C15.5835 3.89893 17.5171 3.89893 19.4507 3.89893C21.3843 3.89893 23.3358 3.89893 25.3052 3.89893C27.2388 3.89893 29.1724 3.89893 31.106 3.89893C31.2492 3.89893 31.4014 3.89893 31.5625 3.89893C31.7236 3.89893 31.8758 3.91683 32.019 3.95264C32.3771 4.06006 32.6636 4.26595 32.8784 4.57031C33.0933 4.87468 33.2007 5.2238 33.2007 5.61768C33.2007 6.58447 33.2007 7.54232 33.2007 8.49121C33.2007 9.44011 33.2007 10.38 33.2007 11.311C33.2007 11.5975 33.1291 11.8213 32.9858 11.9824C32.8426 12.1436 32.6636 12.2241 32.4487 12.2241C32.2339 12.2241 32.0548 12.1436 31.9116 11.9824C31.7684 11.8213 31.6968 11.5975 31.6968 11.311C31.6968 11.0246 31.6968 10.7381 31.6968 10.4517C31.6968 10.1652 31.6968 9.87874 31.6968 9.59229ZM31.6968 7.98096C31.6968 7.62288 31.6968 7.29167 31.6968 6.9873C31.6968 6.68294 31.6968 6.38753 31.6968 6.10107C31.6968 5.743 31.6699 5.52816 31.6162 5.45654C31.5625 5.38493 31.3387 5.34912 30.9448 5.34912C29.047 5.34912 27.1493 5.34912 25.2515 5.34912C23.3179 5.34912 21.3932 5.34912 19.4775 5.34912C17.5618 5.34912 15.6551 5.34912 13.7573 5.34912C11.8237 5.34912 9.90804 5.34912 8.01025 5.34912C7.93864 5.34912 7.86702 5.34912 7.79541 5.34912C7.7238 5.34912 7.65218 5.36702 7.58057 5.40283C7.50895 5.40283 7.44629 5.43864 7.39258 5.51025C7.33887 5.58187 7.29411 5.65348 7.2583 5.7251C7.2583 6.08317 7.2583 6.4502 7.2583 6.82617C7.2583 7.20215 7.2583 7.58708 7.2583 7.98096C9.29932 7.98096 11.3403 7.98096 13.3813 7.98096C15.4224 7.98096 17.4634 7.98096 19.5044 7.98096C21.5454 7.98096 23.5685 7.98096 25.5737 7.98096C27.6147 7.98096 29.6558 7.98096 31.6968 7.98096ZM19.5044 52.7222C18.7166 52.7222 18.0452 52.4447 17.4902 51.8896C16.9352 51.3346 16.6577 50.6812 16.6577 49.9292C16.6577 49.1414 16.9352 48.4701 17.4902 47.915C18.0452 47.36 18.6987 47.0825 19.4507 47.0825C20.2384 47.0825 20.9098 47.3511 21.4648 47.8882C22.0199 48.4253 22.2974 49.0877 22.2974 49.8755C22.2974 50.6274 22.0288 51.2809 21.4917 51.8359C20.9546 52.391 20.2922 52.6864 19.5044 52.7222ZM19.5044 48.6401C19.1463 48.6401 18.842 48.7565 18.5913 48.9893C18.3407 49.222 18.2153 49.5174 18.2153 49.8755C18.2153 50.2336 18.3317 50.5379 18.5645 50.7886C18.7972 51.0392 19.0926 51.1646 19.4507 51.1646C19.8088 51.1646 20.1131 51.0392 20.3638 50.7886C20.6144 50.5379 20.7397 50.2336 20.7397 49.8755C20.7397 49.5174 20.6234 49.222 20.3906 48.9893C20.1579 48.7565 19.8625 48.6401 19.5044 48.6401ZM23.1567 25.437C23.1567 23.396 23.8818 21.6504 25.332 20.2002C26.7822 18.75 28.5278 18.0249 30.5688 18.0249C32.6099 18.0249 34.3555 18.759 35.8057 20.2271C37.2559 21.6951 37.981 23.4318 37.981 25.437C37.981 27.478 37.2559 29.2236 35.8057 30.6738C34.3555 32.124 32.592 32.8491 30.5151 32.8491C28.5099 32.8491 26.7822 32.124 25.332 30.6738C23.8818 29.2236 23.1567 27.478 23.1567 25.437ZM30.5688 31.2915C32.1802 31.2915 33.5588 30.7275 34.7046 29.5996C35.8504 28.4717 36.4233 27.1021 36.4233 25.4907C36.4591 23.8436 35.9041 22.4471 34.7583 21.3013C33.6125 20.1554 32.216 19.5825 30.5688 19.5825C28.9575 19.5825 27.57 20.1554 26.4062 21.3013C25.2425 22.4471 24.6785 23.8257 24.7144 25.437C24.7144 27.0841 25.2873 28.4717 26.4331 29.5996C27.5789 30.7275 28.9575 31.2915 30.5688 31.2915ZM31.106 22.3755C31.106 22.8052 31.106 23.217 31.106 23.6108C31.106 24.0047 31.106 24.4165 31.106 24.8462C31.7863 25.061 32.3324 25.3923 32.7441 25.8398C33.1559 26.2874 33.3081 26.9051 33.2007 27.6929C33.1291 28.23 32.9411 28.6597 32.6367 28.9819C32.3324 29.3042 31.8579 29.5907 31.2134 29.8413C31.1418 29.9487 31.0612 30.0472 30.9717 30.1367C30.8822 30.2262 30.8016 30.3068 30.73 30.3784C30.6584 30.3068 30.5868 30.2262 30.5151 30.1367C30.4435 30.0472 30.354 29.9666 30.2466 29.895C29.9601 29.7876 29.6647 29.6712 29.3604 29.5459C29.056 29.4206 28.7427 29.2863 28.4204 29.1431C28.313 29.0715 28.2145 28.973 28.125 28.8477C28.0355 28.7223 27.9907 28.606 27.9907 28.4985C27.9549 28.3911 27.9728 28.2658 28.0444 28.1226C28.116 27.9793 28.1877 27.8719 28.2593 27.8003C28.3309 27.7645 28.4294 27.7645 28.5547 27.8003C28.68 27.8361 28.7785 27.8719 28.8501 27.9077C29.1007 28.0509 29.3335 28.1852 29.5483 28.3105C29.7632 28.4359 29.9959 28.5702 30.2466 28.7134C30.2466 28.6776 30.2645 28.6507 30.3003 28.6328C30.3361 28.6149 30.354 28.606 30.354 28.606C30.354 28.1763 30.363 27.7466 30.3809 27.3169C30.3988 26.8872 30.3898 26.4575 30.354 26.0278C30.354 25.992 30.3271 25.9473 30.2734 25.8936C30.2197 25.8398 30.175 25.7951 30.1392 25.7593C29.9959 25.6877 29.8617 25.634 29.7363 25.5981C29.611 25.5623 29.4946 25.5086 29.3872 25.437C28.9217 25.2222 28.5905 24.9357 28.3936 24.5776C28.1966 24.2196 28.116 23.8078 28.1519 23.3423C28.2235 22.841 28.3936 22.4382 28.6621 22.1338C28.9307 21.8294 29.3156 21.6056 29.8169 21.4624C29.9243 21.4624 30.0138 21.4445 30.0854 21.4087C30.1571 21.3729 30.2108 21.3192 30.2466 21.2476C30.354 21.1759 30.4435 21.0954 30.5151 21.0059C30.5868 20.9163 30.6584 20.8358 30.73 20.7642C30.8016 20.8358 30.8822 20.9163 30.9717 21.0059C31.0612 21.0954 31.1418 21.1938 31.2134 21.3013C31.4282 21.3371 31.652 21.3818 31.8848 21.4355C32.1175 21.4893 32.3413 21.5698 32.5562 21.6772C32.771 21.7489 32.9053 21.8563 32.959 21.9995C33.0127 22.1427 33.0037 22.3039 32.9321 22.4829C32.8605 22.6978 32.7531 22.8141 32.6099 22.832C32.4666 22.8499 32.3055 22.8052 32.1265 22.6978C31.9474 22.6619 31.7773 22.6172 31.6162 22.5635C31.4551 22.5098 31.285 22.4471 31.106 22.3755ZM30.9985 28.5522C31.3566 28.4806 31.6162 28.3553 31.7773 28.1763C31.9385 27.9972 32.019 27.7466 32.019 27.4243C32.019 27.1021 31.9295 26.8335 31.7505 26.6187C31.5715 26.4038 31.3208 26.2785 30.9985 26.2427C30.9985 26.6366 30.9985 27.0215 30.9985 27.3975C30.9985 27.7734 30.9985 28.1584 30.9985 28.5522ZM30.4077 24.5239C30.4077 24.1659 30.4077 23.8257 30.4077 23.5034C30.4077 23.1812 30.4077 22.841 30.4077 22.4829C30.0496 22.5545 29.7811 22.6619 29.6021 22.8052C29.423 22.9484 29.3335 23.1632 29.3335 23.4497C29.3335 23.7004 29.423 23.9242 29.6021 24.1211C29.7811 24.318 30.0496 24.4523 30.4077 24.5239Z" fill="#EBD67B"/>
</svg>
