<svg width="54" height="55" viewBox="0 0 54 55" fill="none" xmlns="http://www.w3.org/2000/svg">
<path d="M42.3853 54.5151C42.242 54.3719 42.1167 54.2287 42.0093 54.0854C41.9019 53.9422 41.884 53.7632 41.9556 53.5483C41.9914 53.2977 42.0988 53.1276 42.2778 53.0381C42.4569 52.9486 42.6538 52.9038 42.8687 52.9038C44.0861 52.9038 45.3035 52.9038 46.521 52.9038C47.7384 52.9038 48.9559 52.9038 50.1733 52.9038C50.9253 52.9038 51.4803 52.7337 51.8384 52.3936C52.1965 52.0534 52.3755 51.5073 52.3755 50.7554C52.3755 49.0724 52.3755 47.3895 52.3755 45.7065C52.3755 44.0236 52.3755 42.3407 52.3755 40.6577C52.3755 38.9748 52.3755 37.2918 52.3755 35.6089C52.3755 33.8901 52.3755 32.1893 52.3755 30.5063C52.3755 29.7902 52.1965 29.262 51.8384 28.9219C51.4803 28.5817 50.9432 28.4116 50.2271 28.4116C47.3983 28.4116 44.5516 28.4116 41.687 28.4116C38.8224 28.4116 35.9668 28.4116 33.1201 28.4116C30.2734 28.4116 27.4178 28.4116 24.5532 28.4116C21.6886 28.4116 18.842 28.4116 16.0132 28.4116C15.297 28.4116 14.7689 28.5817 14.4287 28.9219C14.0885 29.262 13.9185 29.7902 13.9185 30.5063C13.9185 32.1893 13.9185 33.8901 13.9185 35.6089C13.9185 37.2918 13.9185 38.9748 13.9185 40.6577C13.9185 42.3407 13.9185 44.0415 13.9185 45.7603C13.9185 47.4432 13.9185 49.1261 13.9185 50.8091C13.9185 51.5252 14.0885 52.0623 14.4287 52.4204C14.7689 52.7785 15.297 52.9575 16.0132 52.9575C17.9468 52.9575 19.8804 52.9575 21.814 52.9575C23.7476 52.9575 25.6812 52.9575 27.6147 52.9575C29.5483 52.9575 31.4819 52.9575 33.4155 52.9575C35.3491 52.9575 37.2827 52.9575 39.2163 52.9575C39.4312 52.9575 39.637 52.9844 39.834 53.0381C40.0309 53.0918 40.1831 53.244 40.2905 53.4946C40.3621 53.7095 40.3442 53.8975 40.2368 54.0586C40.1294 54.2197 40.0041 54.3719 39.8608 54.5151C37.784 54.5151 35.7251 54.5151 33.6841 54.5151C31.6073 54.5151 29.5483 54.5151 27.5073 54.5151C25.4663 54.5151 23.4074 54.5151 21.3306 54.5151C19.2896 54.5151 17.2306 54.5151 15.1538 54.5151C14.0438 54.0854 13.2918 53.5931 12.8979 53.0381C12.5041 52.4831 12.3071 51.5968 12.3071 50.3794C12.3071 49.1261 12.3071 47.8908 12.3071 46.6733C12.3071 45.4559 12.3071 44.2384 12.3071 43.021C12.3071 42.9136 12.2892 42.8151 12.2534 42.7256C12.2176 42.6361 12.1639 42.5555 12.0923 42.4839C11.8774 42.1974 11.6536 41.9378 11.4209 41.7051C11.1882 41.4723 10.9823 41.2127 10.8032 40.9263C9.54997 38.8136 8.31462 36.6921 7.09717 34.5615C5.87972 32.431 4.66227 30.3094 3.44482 28.1968C2.87191 27.1942 2.30794 26.1916 1.75293 25.189C1.19792 24.1864 0.651855 23.1659 0.114746 22.1274C0.114746 21.9484 0.114746 21.7515 0.114746 21.5366C0.114746 21.3218 0.114746 21.1069 0.114746 20.8921C0.257975 20.4266 0.454915 19.9969 0.705566 19.603C0.956217 19.2091 1.29639 18.8869 1.72607 18.6362C3.58805 17.562 5.44108 16.4878 7.28516 15.4136C9.12923 14.3394 10.9823 13.2651 12.8442 12.1909C13.0949 12.0477 13.3276 12.0029 13.5425 12.0566C13.7573 12.1104 13.9185 12.2446 14.0259 12.4595C14.1333 12.6385 14.1512 12.8265 14.0796 13.0234C14.008 13.2204 13.8647 13.3905 13.6499 13.5337C13.3993 13.7127 13.1396 13.8739 12.8711 14.0171C12.6025 14.1603 12.3429 14.3035 12.0923 14.4468C10.5168 15.342 8.9502 16.2371 7.39258 17.1323C5.83496 18.0275 4.2863 18.9406 2.74658 19.8716C2.31689 20.0864 2.01253 20.3908 1.8335 20.7847C1.65446 21.1785 1.63656 21.5724 1.77979 21.9663C1.92301 22.3244 2.08415 22.6646 2.26318 22.9868C2.44222 23.3091 2.62126 23.6493 2.80029 24.0073C5.59326 22.396 8.38623 20.7847 11.1792 19.1733C13.9722 17.562 16.7562 15.9596 19.5312 14.3662C22.3063 12.7728 25.0724 11.1704 27.8296 9.55908C30.6226 7.94775 33.3976 6.33643 36.1548 4.7251C35.9757 4.43864 35.8057 4.15218 35.6445 3.86572C35.4834 3.57927 35.3133 3.2928 35.1343 3.00635C34.8836 2.64827 34.5614 2.41553 34.1675 2.30811C33.7736 2.20068 33.3797 2.23649 32.9858 2.41553C32.9142 2.45134 32.8337 2.48714 32.7441 2.52295C32.6546 2.55876 32.5741 2.59456 32.5024 2.63037C31.2492 3.34652 30.0138 4.06266 28.7964 4.77881C27.5431 5.53076 26.2899 6.26481 25.0366 6.98096C23.7834 7.6971 22.548 8.41325 21.3306 9.12939C20.0773 9.84554 18.8241 10.5617 17.5708 11.2778C17.3918 11.3853 17.2127 11.4927 17.0337 11.6001C16.8547 11.7075 16.6756 11.797 16.4966 11.8687C16.3175 11.9761 16.1296 11.994 15.9326 11.9224C15.7357 11.8507 15.5835 11.7254 15.4761 11.5464C15.3687 11.3315 15.3418 11.1436 15.3955 10.9824C15.4492 10.8213 15.5656 10.6691 15.7446 10.5259C15.7804 10.4901 15.8341 10.4453 15.9058 10.3916C15.9774 10.3379 16.049 10.2931 16.1206 10.2573C18.09 9.1473 20.0415 8.02832 21.9751 6.90039C23.9087 5.77246 25.8602 4.65348 27.8296 3.54346C28.689 3.04216 29.5662 2.55876 30.4614 2.09326C31.3566 1.62777 32.2339 1.16227 33.0933 0.696777C33.3081 0.696777 33.514 0.696777 33.7109 0.696777C33.9079 0.696777 34.0959 0.696777 34.2749 0.696777C34.7762 0.840008 35.2327 1.0459 35.6445 1.31445C36.0563 1.58301 36.3875 1.95003 36.6382 2.41553C37.5334 3.91943 38.4106 5.42334 39.27 6.92725C40.1294 8.43115 40.9888 9.93506 41.8481 11.439C42.7075 12.9429 43.5669 14.4289 44.4263 15.897C45.2856 17.4009 46.1629 18.9048 47.0581 20.4087C47.5594 21.3039 47.6847 22.1901 47.4341 23.0674C47.1834 23.9447 46.6284 24.6519 45.769 25.189C45.3752 25.4038 44.9813 25.6276 44.5874 25.8604C44.1935 26.0931 43.8175 26.3169 43.4595 26.5317C43.3879 26.5675 43.3252 26.6034 43.2715 26.6392C43.2178 26.675 43.1372 26.7287 43.0298 26.8003C43.2088 26.8003 43.3521 26.8003 43.4595 26.8003C43.5669 26.8003 43.6564 26.8003 43.728 26.8003C44.8739 26.8003 46.0018 26.8003 47.1118 26.8003C48.2218 26.8003 49.3319 26.8003 50.4419 26.8003C51.3013 26.8003 52.0264 27.0241 52.6172 27.4717C53.208 27.9193 53.6108 28.5548 53.8257 29.3784C53.8615 29.4142 53.8883 29.45 53.9062 29.4858C53.9242 29.5216 53.9331 29.5575 53.9331 29.5933C53.9331 31.4194 53.9331 33.2635 53.9331 35.1255C53.9331 36.9517 53.9331 38.7868 53.9331 40.6309C53.9331 42.4749 53.9331 44.3101 53.9331 46.1362C53.9331 47.9624 53.9331 49.8065 53.9331 51.6685C53.8257 51.9191 53.7183 52.1698 53.6108 52.4204C53.5034 52.6711 53.3781 52.9217 53.2349 53.1724C52.9842 53.5304 52.6709 53.8079 52.2949 54.0049C51.9189 54.2018 51.534 54.3719 51.1401 54.5151C49.672 54.5151 48.2039 54.5151 46.7358 54.5151C45.2677 54.5151 43.8175 54.5151 42.3853 54.5151ZM12.1997 40.1743C12.1997 40.1743 12.2087 40.1743 12.2266 40.1743C12.2445 40.1743 12.2713 40.1743 12.3071 40.1743C12.3071 40.0669 12.3071 39.9684 12.3071 39.8789C12.3071 39.7894 12.3071 39.6909 12.3071 39.5835C12.3071 38.0438 12.3071 36.513 12.3071 34.9912C12.3071 33.4694 12.3071 31.9386 12.3071 30.3989C12.3071 30.1841 12.3161 29.9692 12.334 29.7544C12.3519 29.5396 12.3966 29.3426 12.4683 29.1636C12.7189 28.4116 13.1486 27.8298 13.7573 27.418C14.366 27.0062 15.1001 26.8003 15.9595 26.8003C17.8931 26.8003 19.8267 26.8003 21.7603 26.8003C23.6938 26.8003 25.6274 26.8003 27.561 26.8003C29.4946 26.8003 31.4461 26.8003 33.4155 26.8003C35.3491 26.8003 37.2827 26.8003 39.2163 26.8003C39.3953 26.8003 39.5654 26.7734 39.7266 26.7197C39.8877 26.666 40.0399 26.6034 40.1831 26.5317C40.9709 26.1021 41.7407 25.6724 42.4927 25.2427C43.2446 24.813 43.9966 24.3654 44.7485 23.8999C45.3931 23.5418 45.778 23.1211 45.9033 22.6377C46.0286 22.1543 45.8944 21.5903 45.5005 20.9458C44.4263 19.0838 43.3431 17.2039 42.251 15.3062C41.1589 13.4084 40.0578 11.5106 38.9478 9.61279C38.9119 9.54118 38.8672 9.46956 38.8135 9.39795C38.7598 9.32634 38.715 9.23682 38.6792 9.12939C35.8862 10.7407 33.1112 12.3521 30.354 13.9634C27.561 15.5747 24.777 17.1771 22.002 18.7705C19.2269 20.3639 16.4608 21.9663 13.7036 23.5776C10.9106 25.1532 8.13558 26.7466 5.37842 28.3579C6.52425 30.3631 7.66113 32.3415 8.78906 34.293C9.91699 36.2445 11.0539 38.2049 12.1997 40.1743ZM36.9604 6.12158C34.1675 7.73291 31.3924 9.34424 28.6353 10.9556C25.8423 12.5311 23.0583 14.1245 20.2832 15.7358C17.5081 17.3472 14.742 18.9585 11.9849 20.5698C9.19189 22.1453 6.41683 23.7388 3.65967 25.3501C3.8029 25.6366 3.95508 25.9141 4.11621 26.1826C4.27734 26.4512 4.42952 26.7287 4.57275 27.0151C7.36572 25.4038 10.1587 23.7925 12.9517 22.1812C15.7088 20.6056 18.4749 19.0122 21.25 17.4009C24.0251 15.7896 26.7912 14.1782 29.5483 12.5669C32.3413 10.9914 35.1164 9.39795 37.8735 7.78662C37.7303 7.50016 37.5781 7.22266 37.417 6.9541C37.2559 6.68555 37.1037 6.40804 36.9604 6.12158ZM20.9546 30.2915C21.5275 30.2915 22.0915 30.2915 22.6465 30.2915C23.2015 30.2915 23.7655 30.2915 24.3384 30.2915C24.8755 30.2915 25.2962 30.4437 25.6006 30.748C25.9049 31.0524 26.0571 31.4731 26.0571 32.0103C26.0571 32.8696 26.0571 33.7201 26.0571 34.5615C26.0571 35.403 26.0571 36.2355 26.0571 37.0591C26.0571 37.5962 25.9049 38.0259 25.6006 38.3481C25.2962 38.6704 24.8755 38.8315 24.3384 38.8315C23.1925 38.8315 22.0557 38.8315 20.9277 38.8315C19.7998 38.8315 18.6629 38.8315 17.5171 38.8315C17.0158 38.8315 16.604 38.6704 16.2817 38.3481C15.9595 38.0259 15.7983 37.6141 15.7983 37.1128C15.7983 36.2892 15.7983 35.4478 15.7983 34.5884C15.7983 33.729 15.7983 32.8696 15.7983 32.0103C15.7983 31.509 15.9505 31.0972 16.2549 30.7749C16.5592 30.4526 16.98 30.2915 17.5171 30.2915C18.09 30.2915 18.6629 30.2915 19.2358 30.2915C19.8088 30.2915 20.3817 30.2915 20.9546 30.2915ZM17.356 37.2202C18.5734 37.2202 19.7729 37.2202 20.9546 37.2202C22.1362 37.2202 23.3 37.2202 24.4458 37.2202C24.4458 36.8979 24.4458 36.5846 24.4458 36.2803C24.4458 35.9759 24.4458 35.6805 24.4458 35.394C23.2642 35.394 22.0825 35.394 20.9009 35.394C19.7192 35.394 18.5376 35.394 17.356 35.394C17.356 35.7163 17.356 36.0207 17.356 36.3071C17.356 36.5936 17.356 36.8979 17.356 37.2202ZM20.0952 33.7827C20.0952 33.4604 20.0952 33.1471 20.0952 32.8428C20.0952 32.5384 20.0952 32.2251 20.0952 31.9028C19.6297 31.9028 19.1732 31.9028 18.7256 31.9028C18.278 31.9028 17.8394 31.9028 17.4097 31.9028C17.4097 32.2251 17.4097 32.5384 17.4097 32.8428C17.4097 33.1471 17.4097 33.4604 17.4097 33.7827C17.8394 33.7827 18.278 33.7827 18.7256 33.7827C19.1732 33.7827 19.6297 33.7827 20.0952 33.7827ZM21.7603 33.729C22.2257 33.729 22.6823 33.729 23.1299 33.729C23.5775 33.729 24.034 33.729 24.4995 33.729C24.4995 33.4067 24.4995 33.1024 24.4995 32.8159C24.4995 32.5295 24.4995 32.2251 24.4995 31.9028C24.034 31.9028 23.5685 31.9028 23.103 31.9028C22.6375 31.9028 22.1899 31.9028 21.7603 31.9028C21.7603 32.2251 21.7603 32.5384 21.7603 32.8428C21.7603 33.1471 21.7603 33.4425 21.7603 33.729ZM42.6538 37.0591C41.9735 37.0591 41.2842 37.0591 40.5859 37.0591C39.8877 37.0591 39.1805 37.0591 38.4644 37.0591C37.8914 37.0591 37.4528 36.9069 37.1484 36.6025C36.8441 36.2982 36.6919 35.8595 36.6919 35.2866C36.6919 35.036 36.6919 34.7674 36.6919 34.481C36.6919 34.1945 36.6919 33.9259 36.6919 33.6753C36.6919 33.2098 36.8441 32.8249 37.1484 32.5205C37.4528 32.2161 37.8198 32.0461 38.2495 32.0103C39.7534 32.0103 41.2394 32.0103 42.7075 32.0103C44.1756 32.0103 45.6437 32.0103 47.1118 32.0103C47.5773 32.0461 47.9533 32.2161 48.2397 32.5205C48.5262 32.8249 48.6694 33.1919 48.6694 33.6216C48.7052 33.908 48.7231 34.2035 48.7231 34.5078C48.7231 34.8122 48.7052 35.1076 48.6694 35.394C48.6694 35.8953 48.5173 36.2982 48.2129 36.6025C47.9085 36.9069 47.5236 37.0591 47.0581 37.0591C46.3062 37.0591 45.5721 37.0591 44.856 37.0591C44.1398 37.0591 43.4058 37.0591 42.6538 37.0591ZM38.2495 35.4478C39.7534 35.4478 41.2305 35.4478 42.6807 35.4478C44.1309 35.4478 45.59 35.4478 47.0581 35.4478C47.0581 35.1255 47.0581 34.8122 47.0581 34.5078C47.0581 34.2035 47.0581 33.908 47.0581 33.6216C45.59 33.6216 44.1219 33.6216 42.6538 33.6216C41.1857 33.6216 39.7176 33.6216 38.2495 33.6216C38.2495 33.9438 38.2495 34.2572 38.2495 34.5615C38.2495 34.8659 38.2495 35.1613 38.2495 35.4478ZM28.7964 45.9751C29.62 45.9751 30.4435 45.9751 31.2671 45.9751C32.0907 45.9751 32.9142 45.9751 33.7378 45.9751C34.0959 45.9751 34.3644 46.0467 34.5435 46.1899C34.7225 46.3332 34.812 46.5301 34.812 46.7808C34.7762 46.9956 34.6688 47.1746 34.4897 47.3179C34.3107 47.4611 34.0601 47.5327 33.7378 47.5327C32.0907 47.5327 30.4346 47.5327 28.7695 47.5327C27.1045 47.5327 25.4484 47.5327 23.8013 47.5327C23.4074 47.5327 23.1209 47.4253 22.9419 47.2104C22.7629 46.9956 22.7271 46.745 22.8345 46.4585C22.9419 46.2437 23.0672 46.1094 23.2104 46.0557C23.3537 46.002 23.5148 45.9751 23.6938 45.9751C24.5174 45.9751 25.3589 45.9751 26.2183 45.9751C27.0776 45.9751 27.937 45.9751 28.7964 45.9751ZM40.0757 45.9751C40.5054 45.9751 40.9261 45.9751 41.3379 45.9751C41.7497 45.9751 42.1525 45.9751 42.5464 45.9751C42.8328 45.9751 43.0566 46.0467 43.2178 46.1899C43.3789 46.3332 43.4595 46.5122 43.4595 46.7271C43.4595 46.9777 43.3789 47.1746 43.2178 47.3179C43.0566 47.4611 42.8328 47.5327 42.5464 47.5327C41.7228 47.5327 40.8993 47.5327 40.0757 47.5327C39.2521 47.5327 38.4285 47.5327 37.605 47.5327C37.3185 47.5327 37.0947 47.4611 36.9336 47.3179C36.7725 47.1746 36.6919 46.9777 36.6919 46.7271C36.6919 46.5122 36.7725 46.3332 36.9336 46.1899C37.0947 46.0467 37.3185 45.9751 37.605 45.9751C37.9989 45.9751 38.4017 45.9751 38.8135 45.9751C39.2253 45.9751 39.646 45.9751 40.0757 45.9751ZM18.269 45.9751C18.5555 45.9751 18.842 45.9751 19.1284 45.9751C19.4149 45.9751 19.7013 45.9751 19.9878 45.9751C20.2384 45.9751 20.4354 46.0378 20.5786 46.1631C20.7218 46.2884 20.7935 46.4764 20.7935 46.7271C20.8293 46.9419 20.7756 47.1299 20.6323 47.291C20.4891 47.4521 20.2922 47.5327 20.0415 47.5327C19.4686 47.5685 18.8957 47.5775 18.3228 47.5596C17.7498 47.5417 17.1769 47.5327 16.604 47.5327C16.3534 47.5327 16.1475 47.4521 15.9863 47.291C15.8252 47.1299 15.7625 46.9419 15.7983 46.7271C15.7983 46.5122 15.87 46.3332 16.0132 46.1899C16.1564 46.0467 16.3534 45.9751 16.604 45.9751C16.8905 45.9751 17.1769 45.9751 17.4634 45.9751C17.7498 45.9751 18.0184 45.9751 18.269 45.9751ZM32.7173 22.5571C32.6099 22.4497 32.4845 22.3512 32.3413 22.2617C32.1981 22.1722 32.1086 22.0737 32.0728 21.9663C32.0369 21.8589 32.0459 21.7246 32.0996 21.5635C32.1533 21.4023 32.216 21.2502 32.2876 21.1069C32.2876 21.0711 32.3234 21.0353 32.395 20.9995C32.4666 20.9637 32.5382 20.9279 32.6099 20.8921C33.7915 20.2118 34.9731 19.5225 36.1548 18.8242C37.3364 18.126 38.5181 17.4367 39.6997 16.7563C39.7713 16.7205 39.825 16.6937 39.8608 16.6758C39.8966 16.6579 39.9504 16.6489 40.022 16.6489C40.201 16.5415 40.38 16.5146 40.5591 16.5684C40.7381 16.6221 40.8813 16.7384 40.9888 16.9175C41.0962 17.1323 41.132 17.3293 41.0962 17.5083C41.0604 17.6873 40.953 17.8306 40.7739 17.938C40.6307 18.0454 40.4875 18.1439 40.3442 18.2334C40.201 18.3229 40.0578 18.4035 39.9146 18.4751C38.8761 19.0838 37.8198 19.7015 36.7456 20.3281C35.6714 20.9548 34.5972 21.5724 33.5229 22.1812C33.4155 22.2528 33.2992 22.3154 33.1738 22.3691C33.0485 22.4229 32.8963 22.4855 32.7173 22.5571ZM38.894 22.9331C38.8224 22.8257 38.715 22.7272 38.5718 22.6377C38.4285 22.5482 38.3569 22.4497 38.3569 22.3423C38.3211 22.1991 38.3211 22.0379 38.3569 21.8589C38.3927 21.6799 38.4644 21.5545 38.5718 21.4829C39.1089 21.1606 39.637 20.8473 40.1562 20.543C40.6755 20.2386 41.2036 19.9432 41.7407 19.6567C41.9198 19.5493 42.0988 19.5225 42.2778 19.5762C42.4569 19.6299 42.6001 19.7642 42.7075 19.979C42.8149 20.158 42.8597 20.3371 42.8418 20.5161C42.8239 20.6951 42.7075 20.8384 42.4927 20.9458C41.9914 21.2681 41.4722 21.5814 40.9351 21.8857C40.3979 22.1901 39.8608 22.5034 39.3237 22.8257C39.2879 22.8257 39.2342 22.8346 39.1626 22.8525C39.091 22.8704 39.0015 22.8973 38.894 22.9331Z" fill="#EBD67B"/>
</svg>
