<svg width="55" height="40" viewBox="0 0 55 40" fill="none" xmlns="http://www.w3.org/2000/svg">
<path d="M55 37.9546C54.7493 38.5991 54.3913 39.0467 53.9258 39.2974C53.4603 39.548 52.9053 39.6733 52.2607 39.6733C48.1429 39.6733 44.0251 39.6733 39.9072 39.6733C35.7894 39.6733 31.6715 39.6733 27.5537 39.6733C23.4359 39.6733 19.318 39.6733 15.2002 39.6733C11.0824 39.6733 6.96452 39.6733 2.84668 39.6733C2.20215 39.6733 1.64714 39.548 1.18164 39.2974C0.716146 39.0467 0.358073 38.5991 0.107422 37.9546C0.107422 35.6987 0.107422 33.4429 0.107422 31.187C0.107422 28.9312 0.107422 26.6753 0.107422 24.4194C0.107422 22.1636 0.107422 19.8898 0.107422 17.5981C0.107422 15.3423 0.107422 13.0864 0.107422 10.8306C0.322266 10.186 0.653483 9.73844 1.10107 9.48779C1.54867 9.23714 2.11263 9.11182 2.79297 9.11182C5.80078 9.11182 8.80859 9.11182 11.8164 9.11182C14.8242 9.11182 17.841 9.11182 20.8667 9.11182C23.8924 9.11182 26.9092 9.11182 29.917 9.11182C32.9248 9.11182 35.9326 9.11182 38.9404 9.11182C39.3701 9.11182 39.6834 9.17448 39.8804 9.2998C40.0773 9.42513 40.1758 9.61312 40.1758 9.86377C40.2116 10.1502 40.1221 10.3651 39.9072 10.5083C39.6924 10.6515 39.3701 10.7231 38.9404 10.7231C36.5413 10.7231 34.1423 10.7231 31.7432 10.7231C29.3441 10.7231 26.9539 10.7231 24.5728 10.7231C22.1916 10.7231 19.8014 10.7231 17.4023 10.7231C15.0033 10.7231 12.6042 10.7231 10.2051 10.7231C10.0977 10.7231 9.98128 10.7231 9.85596 10.7231C9.73063 10.7231 9.59635 10.7231 9.45312 10.7231C9.45312 12.979 9.45312 15.2528 9.45312 17.5444C9.45312 19.8003 9.45312 22.0741 9.45312 24.3657C9.45312 26.6574 9.45312 28.9312 9.45312 31.187C9.45312 33.4787 9.45312 35.7703 9.45312 38.062C9.56055 38.062 9.65902 38.062 9.74854 38.062C9.83805 38.062 9.93652 38.062 10.0439 38.062C13.5889 38.062 17.1159 38.062 20.625 38.062C24.1699 38.062 27.7059 38.062 31.2329 38.062C34.7599 38.062 38.2959 38.062 41.8408 38.062C45.3499 38.062 48.877 38.062 52.4219 38.062C52.8516 38.062 53.1201 38.0083 53.2275 37.9009C53.335 37.7935 53.3887 37.5249 53.3887 37.0952C53.3887 34.9826 53.3887 32.87 53.3887 30.7573C53.3887 28.6089 53.3887 26.4784 53.3887 24.3657C53.3887 22.2531 53.3887 20.1405 53.3887 18.0278C53.3887 15.9152 53.3887 13.8026 53.3887 11.6899C53.3887 11.2244 53.3439 10.9469 53.2544 10.8574C53.1649 10.7679 52.8874 10.7231 52.4219 10.7231C52.0996 10.6873 51.8579 10.5978 51.6968 10.4546C51.5356 10.3114 51.4551 10.1144 51.4551 9.86377C51.4551 9.61312 51.5446 9.42513 51.7236 9.2998C51.9027 9.17448 52.1354 9.11182 52.4219 9.11182C53.138 9.11182 53.6751 9.22819 54.0332 9.46094C54.3913 9.69369 54.7135 10.1502 55 10.8306C55 13.0864 55 15.3423 55 17.5981C55 19.8898 55 22.1636 55 24.4194C55 26.6753 55 28.9312 55 31.187C55 33.4429 55 35.6987 55 37.9546ZM7.78809 10.7231C6.92871 10.7231 6.07829 10.7231 5.23682 10.7231C4.39535 10.7231 3.56283 10.7231 2.73926 10.7231C2.23796 10.7231 1.94255 10.7769 1.85303 10.8843C1.76351 10.9917 1.71875 11.2603 1.71875 11.6899C1.71875 13.6952 1.71875 15.6825 1.71875 17.6519C1.71875 19.6571 1.71875 21.6533 1.71875 23.6406C1.71875 25.6279 1.71875 27.6063 1.71875 29.5757C1.71875 31.5809 1.71875 33.5682 1.71875 35.5376C1.71875 35.8241 1.71875 36.1105 1.71875 36.397C1.71875 36.6834 1.71875 36.9699 1.71875 37.2563C1.71875 37.5786 1.77246 37.7935 1.87988 37.9009C1.9873 38.0083 2.18424 38.062 2.4707 38.062C2.90039 38.062 3.33903 38.062 3.78662 38.062C4.23421 38.062 4.67285 38.062 5.10254 38.062C5.56803 38.062 6.02458 38.062 6.47217 38.062C6.91976 38.062 7.3584 38.062 7.78809 38.062C7.78809 35.7703 7.78809 33.4966 7.78809 31.2407C7.78809 28.9491 7.78809 26.6663 7.78809 24.3926C7.78809 22.1188 7.78809 19.8361 7.78809 17.5444C7.78809 15.2886 7.78809 13.0148 7.78809 10.7231ZM49.5215 10.8843C49.7363 10.9917 49.9243 11.1081 50.0854 11.2334C50.2466 11.3587 50.3988 11.4751 50.542 11.5825C50.9359 11.869 51.1776 12.2002 51.2671 12.5762C51.3566 12.9521 51.2581 13.3371 50.9717 13.731C49.9333 15.3065 48.8859 16.873 47.8296 18.4307C46.7733 19.9883 45.708 21.5548 44.6338 23.1304C44.4548 23.381 44.2668 23.5332 44.0698 23.5869C43.8729 23.6406 43.667 23.5959 43.4521 23.4526C43.2373 23.3094 43.1209 23.1304 43.103 22.9155C43.0851 22.7007 43.1657 22.4679 43.3447 22.2173C44.3473 20.7492 45.341 19.2811 46.3257 17.813C47.3104 16.3449 48.304 14.8768 49.3066 13.4087C49.3424 13.3371 49.3962 13.2565 49.4678 13.167C49.5394 13.0775 49.5931 12.979 49.6289 12.8716C49.4857 12.7642 49.3335 12.6567 49.1724 12.5493C49.0112 12.4419 48.8411 12.3166 48.6621 12.1733C48.5905 12.2808 48.5278 12.3792 48.4741 12.4688C48.4204 12.5583 48.3577 12.6388 48.2861 12.7104C47.2835 14.2144 46.2809 15.7183 45.2783 17.2222C44.2399 18.6903 43.2194 20.1763 42.2168 21.6802C41.2142 23.1841 40.1937 24.688 39.1553 26.1919C38.1527 27.6958 37.1322 29.1997 36.0938 30.7036C36.0221 30.8468 35.9237 30.9811 35.7983 31.1064C35.673 31.2318 35.5387 31.3481 35.3955 31.4556C34.4645 32.2075 33.5156 32.9416 32.5488 33.6577C31.582 34.3739 30.6331 35.1079 29.7021 35.8599C29.3083 36.1463 28.9144 36.2269 28.5205 36.1016C28.1266 35.9762 27.876 35.6987 27.7686 35.269C27.7327 35.1616 27.7148 35.0542 27.7148 34.9468C27.7148 34.8394 27.7327 34.7319 27.7686 34.6245C28.0908 33.4071 28.422 32.1986 28.7622 30.999C29.1024 29.7995 29.4336 28.591 29.7559 27.3735C29.7917 27.2661 29.8364 27.1587 29.8901 27.0513C29.9438 26.9438 30.0065 26.8364 30.0781 26.729C31.3314 24.9028 32.5846 23.0588 33.8379 21.1968C35.0911 19.3706 36.3354 17.5355 37.5708 15.6914C38.8062 13.8473 40.0505 11.9943 41.3037 10.1323C42.557 8.30615 43.8102 6.46208 45.0635 4.6001C45.3141 4.20622 45.6185 3.91081 45.9766 3.71387C46.3346 3.51693 46.7643 3.45427 47.2656 3.52588C47.3372 3.52588 47.4178 3.50798 47.5073 3.47217C47.5968 3.43636 47.6774 3.38265 47.749 3.31104C47.9281 3.06038 48.116 2.79183 48.313 2.50537C48.5099 2.21891 48.6979 1.93245 48.877 1.646C49.1634 1.25212 49.4946 1.01937 49.8706 0.947754C50.2466 0.876141 50.6315 0.965656 51.0254 1.21631C51.2044 1.32373 51.3745 1.43115 51.5356 1.53857C51.6968 1.646 51.849 1.75342 51.9922 1.86084C52.3861 2.1473 52.6188 2.47852 52.6904 2.85449C52.762 3.23047 52.6725 3.6333 52.4219 4.06299C52.2428 4.34945 52.0638 4.618 51.8848 4.86865C51.7057 5.1193 51.5088 5.38786 51.2939 5.67432C51.2223 5.78174 51.1776 5.88916 51.1597 5.99658C51.1418 6.104 51.1686 6.21143 51.2402 6.31885C51.4551 6.71273 51.5535 7.0887 51.5356 7.44678C51.5177 7.80485 51.3835 8.16292 51.1328 8.521C51.0254 8.70003 50.9001 8.88802 50.7568 9.08496C50.6136 9.2819 50.4883 9.46989 50.3809 9.64893C50.2376 9.86377 50.1034 10.0607 49.978 10.2397C49.8527 10.4188 49.7005 10.6336 49.5215 10.8843ZM35.0195 29.4683C35.9863 28.0718 36.9352 26.6753 37.8662 25.2788C38.833 23.8465 39.7909 22.4321 40.7397 21.0356C41.6886 19.6392 42.6465 18.2427 43.6133 16.8462C44.5443 15.4139 45.4932 13.9995 46.46 12.603C45.887 12.2091 45.3231 11.8242 44.7681 11.4482C44.2131 11.0723 43.6491 10.7052 43.0762 10.3472C42.1094 11.7437 41.1426 13.158 40.1758 14.5903C39.2448 15.9868 38.3049 17.3923 37.356 18.8066C36.4071 20.221 35.4492 21.6265 34.4824 23.0229C33.5514 24.4194 32.6025 25.8159 31.6357 27.2124C32.2087 27.6063 32.7726 27.9823 33.3276 28.3403C33.8826 28.6984 34.4466 29.0744 35.0195 29.4683ZM45.4932 6.74854C46.0661 7.14241 46.63 7.52734 47.1851 7.90332C47.7401 8.2793 48.304 8.64632 48.877 9.00439C49.056 8.75374 49.2171 8.521 49.3604 8.30615C49.5036 8.09131 49.6468 7.87646 49.79 7.66162C49.8975 7.48259 49.9333 7.3304 49.8975 7.20508C49.8617 7.07975 49.7721 6.96338 49.6289 6.85596C49.235 6.6053 48.8322 6.33675 48.4204 6.05029C48.0086 5.76384 47.6058 5.49528 47.2119 5.24463C47.0329 5.13721 46.8807 5.09245 46.7554 5.11035C46.63 5.12825 46.5137 5.20882 46.4062 5.35205C46.263 5.56689 46.1198 5.79069 45.9766 6.02344C45.8333 6.25618 45.6722 6.49788 45.4932 6.74854ZM30.9912 28.7163C30.7764 29.5757 30.5526 30.4351 30.3198 31.2944C30.0871 32.1538 29.8454 33.0311 29.5947 33.9263C30.3467 33.3534 31.0718 32.7983 31.77 32.2612C32.4683 31.7241 33.1755 31.1691 33.8916 30.5962C33.3903 30.2739 32.9069 29.9606 32.4414 29.6562C31.9759 29.3519 31.4925 29.0386 30.9912 28.7163ZM48.0176 10.2935C47.4089 9.89958 46.8359 9.5236 46.2988 9.16553C45.7617 8.80746 45.2067 8.43148 44.6338 8.0376C44.5264 8.21663 44.4189 8.38672 44.3115 8.54785C44.2041 8.70898 44.0967 8.86117 43.9893 9.00439C44.5622 9.39828 45.1261 9.7832 45.6812 10.1592C46.2362 10.5352 46.7822 10.9022 47.3193 11.2603C47.4268 11.117 47.5342 10.9648 47.6416 10.8037C47.749 10.6426 47.8743 10.4725 48.0176 10.2935ZM50.166 2.55908C49.9512 2.88135 49.7363 3.19466 49.5215 3.49902C49.3066 3.80339 49.0918 4.1167 48.877 4.43896C49.056 4.54639 49.2171 4.64486 49.3604 4.73438C49.5036 4.82389 49.6468 4.92236 49.79 5.02979C50.0049 4.70752 50.2197 4.39421 50.4346 4.08984C50.6494 3.78548 50.8643 3.47217 51.0791 3.1499C50.9001 3.04248 50.7389 2.94401 50.5957 2.85449C50.4525 2.76497 50.3092 2.6665 50.166 2.55908ZM14.5557 13.355C14.6273 13.2476 14.7168 13.1401 14.8242 13.0327C14.9316 12.9253 15.0391 12.8179 15.1465 12.7104C15.2181 12.8179 15.3076 12.9163 15.415 13.0059C15.5225 13.0954 15.6299 13.1938 15.7373 13.3013C15.7015 13.3013 15.6836 13.3102 15.6836 13.3281C15.6836 13.346 15.6657 13.355 15.6299 13.355C15.9521 13.4266 16.2655 13.4982 16.5698 13.5698C16.8742 13.6414 17.1696 13.731 17.4561 13.8384C17.6709 13.91 17.8231 14.0174 17.9126 14.1606C18.0021 14.3039 18.029 14.5008 17.9932 14.7515C17.9215 15.0021 17.8052 15.1722 17.644 15.2617C17.4829 15.3512 17.2591 15.3423 16.9727 15.2349C16.7578 15.1632 16.534 15.0827 16.3013 14.9932C16.0685 14.9036 15.8268 14.8231 15.5762 14.7515C15.5762 15.2886 15.5762 15.7899 15.5762 16.2554C15.5762 16.7209 15.5762 17.1864 15.5762 17.6519C15.5762 17.6877 15.603 17.7414 15.6567 17.813C15.7104 17.8846 15.7731 17.9204 15.8447 17.9204C15.9521 17.992 16.0596 18.0547 16.167 18.1084C16.2744 18.1621 16.3818 18.2069 16.4893 18.2427C17.3128 18.6366 17.8678 19.2095 18.1543 19.9614C18.4408 20.7134 18.4049 21.519 18.0469 22.3784C17.8678 22.8439 17.5993 23.2109 17.2412 23.4795C16.8831 23.748 16.4714 23.936 16.0059 24.0435C15.9342 24.0793 15.8537 24.133 15.7642 24.2046C15.6746 24.2762 15.612 24.3478 15.5762 24.4194C15.5762 24.5627 15.5493 24.688 15.4956 24.7954C15.4419 24.9028 15.3255 24.9565 15.1465 24.9565C14.9316 24.9565 14.7974 24.8939 14.7437 24.7686C14.6899 24.6432 14.681 24.509 14.7168 24.3657C14.7168 24.3299 14.7078 24.3031 14.6899 24.2852C14.672 24.2673 14.6631 24.2583 14.6631 24.2583C14.3766 24.1867 14.0723 24.1151 13.75 24.0435C13.4277 23.9718 13.1413 23.8644 12.8906 23.7212C12.6758 23.6496 12.4699 23.5332 12.2729 23.3721C12.076 23.2109 11.9059 23.0409 11.7627 22.8618C11.6195 22.6828 11.5658 22.4948 11.6016 22.2979C11.6374 22.1009 11.7448 21.9129 11.9238 21.7339C12.0671 21.5548 12.2192 21.5011 12.3804 21.5728C12.5415 21.6444 12.6937 21.7339 12.8369 21.8413C13.0876 22.092 13.3651 22.2889 13.6694 22.4321C13.9738 22.5754 14.3229 22.6649 14.7168 22.7007C14.7168 22.1278 14.7078 21.5728 14.6899 21.0356C14.672 20.4985 14.6631 19.9614 14.6631 19.4243C14.6631 19.3527 14.6362 19.29 14.5825 19.2363C14.5288 19.1826 14.484 19.1379 14.4482 19.1021C14.305 19.0304 14.1528 18.9678 13.9917 18.9141C13.8306 18.8604 13.6784 18.7977 13.5352 18.7261C12.8906 18.4038 12.4341 18.001 12.1655 17.5176C11.897 17.0342 11.7985 16.4523 11.8701 15.772C11.9775 15.1991 12.2371 14.7157 12.6489 14.3218C13.0607 13.9279 13.6068 13.6772 14.2871 13.5698C14.3229 13.534 14.3766 13.5161 14.4482 13.5161C14.5199 13.5161 14.5736 13.4982 14.6094 13.4624C14.6094 13.4624 14.6004 13.4445 14.5825 13.4087C14.5646 13.3729 14.5557 13.355 14.5557 13.355ZM15.5762 19.5317C15.5762 20.0688 15.5762 20.5881 15.5762 21.0894C15.5762 21.5907 15.5762 22.092 15.5762 22.5933C15.9701 22.5216 16.2655 22.3784 16.4624 22.1636C16.6593 21.9487 16.7757 21.6623 16.8115 21.3042C16.8473 20.9103 16.7668 20.5702 16.5698 20.2837C16.3729 19.9972 16.0417 19.7466 15.5762 19.5317ZM14.7705 14.9126C14.3408 14.9484 14.0007 15.0648 13.75 15.2617C13.4993 15.4587 13.374 15.7362 13.374 16.0942C13.374 16.4523 13.4993 16.7567 13.75 17.0073C14.0007 17.258 14.3408 17.4012 14.7705 17.437C14.7705 17.0073 14.7705 16.5866 14.7705 16.1748C14.7705 15.763 14.7705 15.3423 14.7705 14.9126ZM42.915 32.9058C44.2041 32.9058 45.4842 32.9058 46.7554 32.9058C48.0265 32.9058 49.3066 32.9237 50.5957 32.9595C50.7031 32.9595 50.8284 32.9684 50.9717 32.9863C51.1149 33.0042 51.2223 33.049 51.2939 33.1206C51.4014 33.1922 51.4819 33.2996 51.5356 33.4429C51.5894 33.5861 51.5983 33.7114 51.5625 33.8188C51.5625 33.9263 51.5088 34.0337 51.4014 34.1411C51.2939 34.2485 51.1865 34.3381 51.0791 34.4097C50.9717 34.4813 50.8643 34.5171 50.7568 34.5171C50.6494 34.5171 50.5241 34.5171 50.3809 34.5171C47.8743 34.5171 45.3768 34.5171 42.8882 34.5171C40.3996 34.5171 37.902 34.5171 35.3955 34.5171C35.3597 34.5171 35.3239 34.5171 35.2881 34.5171C35.2523 34.5171 35.1986 34.5171 35.127 34.5171C34.8405 34.4813 34.6167 34.4007 34.4556 34.2754C34.2944 34.1501 34.2139 33.9621 34.2139 33.7114C34.2139 33.4608 34.2944 33.2728 34.4556 33.1475C34.6167 33.0221 34.8584 32.9595 35.1807 32.9595C36.4697 32.9237 37.7588 32.9058 39.0479 32.9058C40.3369 32.9058 41.626 32.9058 42.915 32.9058ZM19.3896 29.3071C18.1722 29.3071 16.9458 29.3071 15.7104 29.3071C14.4751 29.3071 13.2487 29.3071 12.0312 29.3071C11.9596 29.3071 11.888 29.3071 11.8164 29.3071C11.7448 29.3071 11.6732 29.3071 11.6016 29.3071C11.3509 29.2713 11.1629 29.1908 11.0376 29.0654C10.9123 28.9401 10.8496 28.77 10.8496 28.5552C10.8496 28.3045 10.9123 28.1165 11.0376 27.9912C11.1629 27.8659 11.333 27.7853 11.5479 27.7495C11.6195 27.7137 11.6911 27.6958 11.7627 27.6958C11.8343 27.6958 11.9059 27.6958 11.9775 27.6958C14.4482 27.6958 16.9279 27.6958 19.4165 27.6958C21.9051 27.6958 24.3848 27.6958 26.8555 27.6958C26.9271 27.6958 26.9987 27.6958 27.0703 27.6958C27.1419 27.6958 27.2135 27.7137 27.2852 27.7495C27.5358 27.7853 27.7238 27.8748 27.8491 28.0181C27.9744 28.1613 28.0192 28.3403 27.9834 28.5552C27.9834 28.8058 27.9118 28.9938 27.7686 29.1191C27.6253 29.2445 27.4463 29.3071 27.2314 29.3071C26.9092 29.3071 26.5959 29.3071 26.2915 29.3071C25.9871 29.3071 25.6738 29.3071 25.3516 29.3071C24.349 29.3071 23.3553 29.3071 22.3706 29.3071C21.3859 29.3071 20.3923 29.3071 19.3896 29.3071ZM18.7988 34.5171C17.6888 34.5171 16.5698 34.5171 15.4419 34.5171C14.314 34.5171 13.195 34.5171 12.085 34.5171C11.9775 34.5171 11.8701 34.5171 11.7627 34.5171C11.6553 34.5171 11.5658 34.4992 11.4941 34.4634C11.2435 34.4276 11.0645 34.3381 10.957 34.1948C10.8496 34.0516 10.7959 33.8726 10.7959 33.6577C10.8317 33.4429 10.9123 33.2728 11.0376 33.1475C11.1629 33.0221 11.333 32.9595 11.5479 32.9595C11.6195 32.9237 11.6911 32.9058 11.7627 32.9058C11.8343 32.9058 11.9059 32.9058 11.9775 32.9058C14.2692 32.9058 16.5609 32.9058 18.8525 32.9058C21.1442 32.9058 23.4359 32.9058 25.7275 32.9058C25.7992 32.9058 25.8797 32.9058 25.9692 32.9058C26.0588 32.9058 26.1393 32.9237 26.2109 32.9595C26.4258 32.9953 26.5869 33.0758 26.6943 33.2012C26.8018 33.3265 26.8734 33.4787 26.9092 33.6577C26.9092 33.8726 26.8555 34.0426 26.748 34.168C26.6406 34.2933 26.4974 34.3918 26.3184 34.4634C26.2109 34.4992 26.1035 34.5171 25.9961 34.5171C25.8887 34.5171 25.7812 34.5171 25.6738 34.5171C24.528 34.5171 23.3822 34.5171 22.2363 34.5171C21.0905 34.5171 19.9447 34.5171 18.7988 34.5171ZM45.2246 29.2534C44.3294 29.2534 43.4342 29.2534 42.5391 29.2534C41.6439 29.2534 40.7487 29.2534 39.8535 29.2534C39.5312 29.2534 39.2806 29.1908 39.1016 29.0654C38.9225 28.9401 38.833 28.7521 38.833 28.5015C38.833 28.2508 38.9225 28.0539 39.1016 27.9106C39.2806 27.7674 39.5312 27.6958 39.8535 27.6958C41.6439 27.6958 43.4342 27.6958 45.2246 27.6958C47.015 27.6958 48.8053 27.6958 50.5957 27.6958C50.918 27.6958 51.1686 27.7585 51.3477 27.8838C51.5267 28.0091 51.6162 28.1971 51.6162 28.4478C51.6162 28.6984 51.5267 28.8953 51.3477 29.0386C51.1686 29.1818 50.918 29.2534 50.5957 29.2534C49.7005 29.2892 48.8053 29.2982 47.9102 29.2803C47.015 29.2624 46.1198 29.2534 45.2246 29.2534Z" fill="#EBD67B"/>
</svg>
