<svg width="54" height="53" viewBox="0 0 54 53" fill="none" xmlns="http://www.w3.org/2000/svg">
<path d="M0.161133 36.2739C0.805664 35.6652 1.43229 35.0475 2.04102 34.4209C2.64974 33.7943 3.27637 33.1766 3.9209 32.5679C4.78027 31.6727 5.65755 30.7865 6.55273 29.9092C7.44792 29.0319 8.3431 28.1457 9.23828 27.2505C9.27409 27.2505 9.3099 27.2326 9.3457 27.1968C9.38151 27.161 9.41732 27.1252 9.45312 27.0894C9.847 26.6597 10.1245 26.4359 10.2856 26.418C10.4468 26.4001 10.778 26.5522 11.2793 26.8745C11.2793 26.7671 11.2793 26.6686 11.2793 26.5791C11.2793 26.4896 11.2793 26.3911 11.2793 26.2837C11.2793 24.6724 11.2793 23.0431 11.2793 21.396C11.2793 19.7489 11.2793 18.1196 11.2793 16.5083C11.2793 16.4009 11.2793 16.3024 11.2793 16.2129C11.2793 16.1234 11.2972 16.0428 11.333 15.9712C11.333 15.7563 11.3867 15.5952 11.4941 15.4878C11.6016 15.3804 11.7627 15.3088 11.9775 15.2729C12.1924 15.2371 12.3625 15.264 12.4878 15.3535C12.6131 15.443 12.7116 15.5773 12.7832 15.7563C12.819 15.8638 12.8459 15.9801 12.8638 16.1055C12.8817 16.2308 12.8906 16.3472 12.8906 16.4546C12.8906 18.3524 12.8906 20.2502 12.8906 22.1479C12.8906 24.0457 12.8906 25.9435 12.8906 27.8413C12.8906 28.092 12.9264 28.3158 12.998 28.5127C13.0697 28.7096 13.195 28.8976 13.374 29.0767C14.5199 30.1867 15.6567 31.3057 16.7847 32.4336C17.9126 33.5615 19.0495 34.6805 20.1953 35.7905C20.3743 35.9696 20.5086 36.1665 20.5981 36.3813C20.6877 36.5962 20.6787 36.8468 20.5713 37.1333C20.4639 37.384 20.3117 37.563 20.1147 37.6704C19.9178 37.7778 19.6761 37.8315 19.3896 37.8315C19.318 37.8315 19.2464 37.8315 19.1748 37.8315C19.1032 37.8315 19.0137 37.8494 18.9062 37.8853C18.9062 37.9569 18.9062 38.0464 18.9062 38.1538C18.9062 38.2612 18.9062 38.3507 18.9062 38.4224C18.9062 39.7114 18.9062 40.9826 18.9062 42.2358C18.9062 43.4891 18.9062 44.7603 18.9062 46.0493C18.9062 46.8013 18.7272 47.3563 18.3691 47.7144C18.0111 48.0724 17.4382 48.2515 16.6504 48.2515C16.0417 48.2515 15.424 48.2515 14.7974 48.2515C14.1707 48.2515 13.5352 48.2515 12.8906 48.2515C12.8906 48.6812 12.8906 49.1019 12.8906 49.5137C12.8906 49.9255 12.8906 50.3283 12.8906 50.7222C12.8906 50.7938 12.9354 50.8564 13.0249 50.9102C13.1144 50.9639 13.195 51.0086 13.2666 51.0444C13.3024 51.0802 13.3561 51.0892 13.4277 51.0713C13.4993 51.0534 13.5531 51.0444 13.5889 51.0444C15.5583 51.0444 17.5098 51.0444 19.4434 51.0444C21.4128 51.0444 23.3732 51.0444 25.3247 51.0444C27.2762 51.0444 29.2367 51.0444 31.2061 51.0444C33.1396 51.0444 35.0911 51.0444 37.0605 51.0444C37.1322 51.0444 37.2127 51.0444 37.3022 51.0444C37.3918 51.0444 37.4902 51.0444 37.5977 51.0444C37.5977 50.937 37.5977 50.8296 37.5977 50.7222C37.5977 50.6147 37.5977 50.5252 37.5977 50.4536C37.5977 49.4868 37.5977 48.52 37.5977 47.5532C37.5977 46.5864 37.5977 45.6017 37.5977 44.5991C37.5977 43.8472 37.7767 43.2922 38.1348 42.9341C38.4928 42.576 39.0479 42.397 39.7998 42.397C40.7308 42.397 41.6528 42.397 42.5659 42.397C43.479 42.397 44.401 42.397 45.332 42.397C45.4395 42.397 45.5379 42.397 45.6274 42.397C45.717 42.397 45.8154 42.397 45.9229 42.397C45.9229 40.6782 45.9229 38.9595 45.9229 37.2407C45.9229 35.522 45.9229 33.8032 45.9229 32.0845C45.7438 32.1203 45.5648 32.1471 45.3857 32.165C45.2067 32.1829 45.0277 32.2277 44.8486 32.2993C44.777 32.2993 44.7144 32.3262 44.6606 32.3799C44.6069 32.4336 44.5622 32.4963 44.5264 32.5679C44.4548 32.7469 44.3921 32.9438 44.3384 33.1587C44.2847 33.3735 44.222 33.5884 44.1504 33.8032C44.043 34.0539 43.8997 34.224 43.7207 34.3135C43.5417 34.403 43.3447 34.4119 43.1299 34.3403C42.9508 34.3045 42.8076 34.1971 42.7002 34.0181C42.5928 33.839 42.5749 33.6242 42.6465 33.3735C42.6823 33.1587 42.736 32.9438 42.8076 32.729C42.8792 32.5142 42.9508 32.2993 43.0225 32.0845C43.0225 32.0129 43.0135 31.9233 42.9956 31.8159C42.9777 31.7085 42.9329 31.619 42.8613 31.5474C42.5033 31.1893 42.2795 30.8133 42.1899 30.4194C42.1004 30.0256 42.1273 29.5959 42.2705 29.1304C42.8792 27.2326 43.479 25.3348 44.0698 23.437C44.6606 21.5392 45.2425 19.6414 45.8154 17.7437C45.887 17.6004 45.9318 17.4482 45.9497 17.2871C45.9676 17.126 45.9766 16.9738 45.9766 16.8306C45.9766 14.4673 45.9766 12.104 45.9766 9.74072C45.9766 7.37744 45.9766 5.01416 45.9766 2.65088C45.9766 2.257 45.9408 2.02425 45.8691 1.95264C45.7975 1.88102 45.5648 1.84521 45.1709 1.84521C45.0277 1.84521 44.8934 1.84521 44.7681 1.84521C44.6427 1.84521 44.5085 1.84521 44.3652 1.84521C44.1504 1.7736 43.9893 1.66618 43.8818 1.52295C43.7744 1.37972 43.7386 1.20068 43.7744 0.98584C43.7744 0.770996 43.8371 0.60091 43.9624 0.475586C44.0877 0.350262 44.2578 0.287598 44.4727 0.287598C44.7233 0.287598 44.974 0.287598 45.2246 0.287598C45.4753 0.287598 45.7259 0.287598 45.9766 0.287598C46.4421 0.359211 46.818 0.583008 47.1045 0.958984C47.3909 1.33496 47.5342 1.7915 47.5342 2.32861C47.5342 3.68929 47.5342 5.06787 47.5342 6.46436C47.5342 7.86084 47.5342 9.23942 47.5342 10.6001C47.5342 10.8149 47.5342 11.0477 47.5342 11.2983C47.5342 11.549 47.5342 11.8175 47.5342 12.104C47.7848 11.7817 48.0534 11.5132 48.3398 11.2983C48.6263 11.0835 48.9486 10.994 49.3066 11.0298C49.6289 11.0298 49.9691 11.0745 50.3271 11.1641C50.6852 11.2536 51.0075 11.37 51.2939 11.5132C51.7952 11.7996 52.0907 12.1756 52.1802 12.6411C52.2697 13.1066 52.207 13.769 51.9922 14.6284C52.5293 14.8433 52.959 15.1566 53.2812 15.5684C53.6035 15.9801 53.8363 16.4546 53.9795 16.9917C53.9795 17.1707 53.9795 17.3498 53.9795 17.5288C53.9795 17.7078 53.9795 17.8869 53.9795 18.0659C53.9795 18.1017 53.9705 18.1375 53.9526 18.1733C53.9347 18.2091 53.9079 18.245 53.8721 18.2808C53.693 18.9611 53.4961 19.6414 53.2812 20.3218C53.0664 21.0021 52.8516 21.6825 52.6367 22.3628C52.5651 22.5418 52.4577 22.6851 52.3145 22.7925C52.1712 22.8999 52.0101 22.9536 51.8311 22.9536C51.6162 22.9536 51.4461 22.8999 51.3208 22.7925C51.1955 22.6851 51.1149 22.5239 51.0791 22.3091C51.0791 22.2017 51.0881 22.0942 51.106 21.9868C51.1239 21.8794 51.1507 21.772 51.1865 21.6646C51.3656 21.0558 51.5535 20.4382 51.7505 19.8115C51.9474 19.1849 52.1354 18.5672 52.3145 17.9585C52.4577 17.5646 52.4487 17.2065 52.2876 16.8843C52.1265 16.562 51.8669 16.3293 51.5088 16.186C51.473 16.2576 51.4461 16.3114 51.4282 16.3472C51.4103 16.383 51.4014 16.4367 51.4014 16.5083C50.7926 18.5135 50.175 20.5098 49.5483 22.4971C48.9217 24.4844 48.304 26.4806 47.6953 28.4858C47.6595 28.5933 47.6326 28.7096 47.6147 28.835C47.5968 28.9603 47.5879 29.0946 47.5879 29.2378C47.5879 31.5295 47.5879 33.8122 47.5879 36.0859C47.5879 38.3597 47.57 40.6424 47.5342 42.9341C47.5342 43.1489 47.4984 43.3727 47.4268 43.6055C47.3551 43.8382 47.2656 44.0262 47.1582 44.1694C45.8691 45.4943 44.5801 46.8192 43.291 48.144C42.002 49.4689 40.7129 50.7938 39.4238 52.1187C39.2448 52.2977 39.0479 52.432 38.833 52.5215C38.6182 52.611 38.3854 52.6558 38.1348 52.6558C36.0579 52.6558 33.999 52.6558 31.958 52.6558C29.8812 52.6558 27.8133 52.6558 25.7544 52.6558C23.6955 52.6558 21.6276 52.6558 19.5508 52.6558C17.5098 52.6558 15.4508 52.6558 13.374 52.6558C12.7295 52.6558 12.2192 52.4767 11.8433 52.1187C11.4673 51.7606 11.2793 51.2414 11.2793 50.561C11.2793 50.203 11.2793 49.827 11.2793 49.4331C11.2793 49.0392 11.2793 48.6453 11.2793 48.2515C11.1719 48.2515 11.0645 48.2515 10.957 48.2515C10.8496 48.2515 10.7422 48.2515 10.6348 48.2515C9.48893 48.2515 8.35205 48.2515 7.22412 48.2515C6.09619 48.2515 4.97721 48.2515 3.86719 48.2515C3.25846 48.2515 2.78402 48.0814 2.44385 47.7412C2.10368 47.401 1.93359 46.9445 1.93359 46.3716C1.93359 46.1925 1.93359 46.0225 1.93359 45.8613C1.93359 45.7002 1.93359 45.5301 1.93359 45.3511C1.93359 44.1694 1.93359 42.9967 1.93359 41.833C1.93359 40.6693 1.93359 39.5145 1.93359 38.3687C1.93359 38.2254 1.91569 38.1001 1.87988 37.9927C1.84408 37.8853 1.71875 37.8315 1.50391 37.8315C1.21745 37.8674 0.957845 37.8136 0.725098 37.6704C0.49235 37.5272 0.304362 37.3302 0.161133 37.0796C0.19694 36.9364 0.214844 36.8021 0.214844 36.6768C0.214844 36.5514 0.19694 36.4172 0.161133 36.2739ZM3.54492 37.8315C3.54492 38.2254 3.54492 38.6104 3.54492 38.9863C3.54492 39.3623 3.54492 39.7472 3.54492 40.1411C3.54492 41.1437 3.54492 42.1374 3.54492 43.1221C3.54492 44.1068 3.54492 45.1004 3.54492 46.103C3.54492 46.2104 3.54492 46.3268 3.54492 46.4521C3.54492 46.5775 3.65234 46.6401 3.86719 46.6401C4.36849 46.6401 4.8877 46.6401 5.4248 46.6401C5.96191 46.6401 6.49902 46.6401 7.03613 46.6401C7.03613 46.4969 7.03613 46.3805 7.03613 46.291C7.03613 46.2015 7.03613 46.103 7.03613 45.9956C7.03613 45.2437 7.03613 44.5007 7.03613 43.7666C7.03613 43.0326 7.03613 42.2896 7.03613 41.5376C7.03613 41.0363 7.16146 40.6693 7.41211 40.4365C7.66276 40.2038 8.02083 40.0695 8.48633 40.0337C9.09505 40.0337 9.72168 40.0337 10.3662 40.0337C11.0107 40.0337 11.6374 40.0337 12.2461 40.0337C12.819 40.0337 13.2308 40.159 13.4814 40.4097C13.7321 40.6603 13.8574 41.0721 13.8574 41.645C13.8574 42.3612 13.8574 43.0863 13.8574 43.8203C13.8574 44.5544 13.8574 45.2974 13.8574 46.0493C13.8574 46.1209 13.8574 46.2104 13.8574 46.3179C13.8574 46.4253 13.8574 46.5327 13.8574 46.6401C14.3587 46.6401 14.8511 46.6401 15.3345 46.6401C15.8179 46.6401 16.2923 46.6401 16.7578 46.6401C16.9727 46.6401 17.1248 46.5954 17.2144 46.5059C17.3039 46.4163 17.3486 46.2642 17.3486 46.0493C17.3486 44.7603 17.3486 43.4622 17.3486 42.1553C17.3486 40.8483 17.3486 39.5503 17.3486 38.2612C17.3486 38.1896 17.3397 38.118 17.3218 38.0464C17.3039 37.9748 17.2949 37.9032 17.2949 37.8315C15.0033 37.8315 12.7116 37.8315 10.4199 37.8315C8.12826 37.8315 5.83659 37.8315 3.54492 37.8315ZM10.4736 28.271C9.14876 29.5959 7.82389 30.9118 6.49902 32.2188C5.17415 33.5257 3.83138 34.8416 2.4707 36.1665C5.15625 36.1665 7.79704 36.1665 10.3931 36.1665C12.9891 36.1665 15.5404 36.1665 18.0469 36.1665C16.8294 34.8774 15.5851 33.5794 14.314 32.2725C13.0428 30.9655 11.7627 29.6317 10.4736 28.271ZM12.1924 41.6987C11.5837 41.6987 10.9839 41.6987 10.3931 41.6987C9.80225 41.6987 9.22038 41.6987 8.64746 41.6987C8.64746 42.5223 8.64746 43.3369 8.64746 44.1426C8.64746 44.9482 8.64746 45.7629 8.64746 46.5864C9.25618 46.5864 9.85596 46.5864 10.4468 46.5864C11.0376 46.5864 11.6195 46.5864 12.1924 46.5864C12.1924 45.7629 12.1924 44.9482 12.1924 44.1426C12.1924 43.3369 12.1924 42.5223 12.1924 41.6987ZM39.2627 50.0239C40.2295 48.9855 41.1963 47.965 42.1631 46.9624C43.1299 45.9598 44.1146 44.9572 45.1172 43.9546C44.1862 43.9546 43.291 43.9546 42.4316 43.9546C41.5723 43.9546 40.7129 43.9367 39.8535 43.9009C39.6029 43.9009 39.4328 43.9546 39.3433 44.062C39.2537 44.1694 39.209 44.3485 39.209 44.5991C39.209 45.4227 39.209 46.2373 39.209 47.043C39.209 47.8486 39.209 48.6632 39.209 49.4868C39.209 49.5584 39.209 49.63 39.209 49.7017C39.209 49.7733 39.2269 49.8807 39.2627 50.0239ZM47.8564 22.4165C47.8923 22.3449 47.9191 22.2822 47.937 22.2285C47.9549 22.1748 47.9818 22.13 48.0176 22.0942C48.4473 20.6619 48.8859 19.2476 49.3335 17.8511C49.7811 16.4546 50.2197 15.0402 50.6494 13.6079C50.721 13.3215 50.721 13.1066 50.6494 12.9634C50.5778 12.8201 50.363 12.7127 50.0049 12.6411C49.6826 12.5337 49.4499 12.5068 49.3066 12.5605C49.1634 12.6143 49.056 12.8022 48.9844 13.1245C48.6979 14.0555 48.4115 14.9775 48.125 15.8906C47.8385 16.8037 47.5342 17.7078 47.2119 18.603C47.0687 19.1759 46.9076 19.731 46.7285 20.2681C46.5495 20.8052 46.3883 21.3423 46.2451 21.8794C46.5316 21.951 46.8001 22.0316 47.0508 22.1211C47.3014 22.2106 47.57 22.3091 47.8564 22.4165ZM44.6338 26.8208C44.9561 26.9282 45.2515 27.0177 45.52 27.0894C45.7886 27.161 46.0661 27.2505 46.3525 27.3579C46.5316 26.7492 46.7106 26.1673 46.8896 25.6123C47.0687 25.0573 47.2477 24.4933 47.4268 23.9204C47.1403 23.813 46.8628 23.7145 46.5942 23.625C46.3257 23.5355 46.0482 23.4549 45.7617 23.3833C45.5469 23.9562 45.3589 24.5291 45.1978 25.1021C45.0366 25.675 44.8486 26.2479 44.6338 26.8208ZM44.2041 28.3247C44.1325 28.5754 44.0519 28.8171 43.9624 29.0498C43.8729 29.2826 43.8102 29.5063 43.7744 29.7212C43.7744 29.8286 43.7923 29.945 43.8281 30.0703C43.8639 30.1956 43.9176 30.2762 43.9893 30.312C44.1325 30.4194 44.2847 30.491 44.4458 30.5269C44.6069 30.5627 44.7591 30.5806 44.9023 30.5806C44.974 30.5806 45.0635 30.5537 45.1709 30.5C45.2783 30.4463 45.3499 30.3836 45.3857 30.312C45.4932 30.0972 45.5827 29.8644 45.6543 29.6138C45.7259 29.3631 45.7975 29.1125 45.8691 28.8618C45.5827 28.7544 45.3052 28.6649 45.0366 28.5933C44.7681 28.5216 44.4906 28.4321 44.2041 28.3247ZM29.4336 6.35693C31.0449 6.35693 32.6562 6.35693 34.2676 6.35693C35.8789 6.35693 37.4902 6.35693 39.1016 6.35693C39.7819 6.35693 40.2832 6.51807 40.6055 6.84033C40.9277 7.1626 41.0889 7.62809 41.0889 8.23682C41.0889 8.73812 41.0889 9.23942 41.0889 9.74072C41.0889 10.242 41.0889 10.7433 41.0889 11.2446C41.0889 11.7459 40.9367 12.1577 40.6323 12.48C40.328 12.8022 39.9251 12.9813 39.4238 13.0171C39.388 13.0171 39.3522 13.0171 39.3164 13.0171C39.2806 13.0171 39.2269 13.0171 39.1553 13.0171C37.5439 13.0171 35.9326 13.0171 34.3213 13.0171C32.71 13.0171 31.0897 13.0171 29.4604 13.0171C27.8312 13.0171 26.2109 13.0171 24.5996 13.0171C22.9883 13.0171 21.359 13.0171 19.7119 13.0171C19.6045 13.0171 19.4792 13.0081 19.3359 12.9902C19.1927 12.9723 19.0674 12.9455 18.96 12.9097C18.6019 12.8381 18.3244 12.6501 18.1274 12.3457C17.9305 12.0413 17.832 11.7101 17.832 11.3521C17.7962 10.8149 17.7783 10.2778 17.7783 9.74072C17.7783 9.20361 17.7962 8.6665 17.832 8.12939C17.832 7.55648 17.9932 7.11784 18.3154 6.81348C18.6377 6.50911 19.0853 6.35693 19.6582 6.35693C21.2695 6.35693 22.8988 6.35693 24.5459 6.35693C26.193 6.35693 27.8223 6.35693 29.4336 6.35693ZM39.4775 7.96826C37.7946 7.96826 36.1296 7.96826 34.4824 7.96826C32.7995 7.96826 31.1255 7.96826 29.4604 7.96826C27.7954 7.96826 26.1214 7.96826 24.4385 7.96826C22.7555 7.96826 21.0905 7.96826 19.4434 7.96826C19.4434 8.54118 19.4434 9.11409 19.4434 9.68701C19.4434 10.2599 19.4434 10.8328 19.4434 11.4058C21.1263 11.4058 22.7913 11.4058 24.4385 11.4058C26.1214 11.4058 27.7954 11.4058 29.4604 11.4058C31.1255 11.4058 32.7995 11.4058 34.4824 11.4058C36.1296 11.4058 37.7946 11.4058 39.4775 11.4058C39.4775 10.8328 39.4775 10.2599 39.4775 9.68701C39.4775 9.11409 39.4775 8.54118 39.4775 7.96826ZM27.0166 0.233887C29.2725 0.233887 31.5194 0.233887 33.7573 0.233887C35.9953 0.233887 38.2422 0.233887 40.498 0.233887C40.6055 0.233887 40.7039 0.233887 40.7935 0.233887C40.883 0.233887 40.9635 0.233887 41.0352 0.233887C41.25 0.233887 41.4111 0.296551 41.5186 0.421875C41.626 0.547199 41.6976 0.699383 41.7334 0.878418C41.7334 1.09326 41.6886 1.2723 41.5991 1.41553C41.5096 1.55876 41.3753 1.66618 41.1963 1.73779C41.0531 1.7736 40.9188 1.7915 40.7935 1.7915C40.6681 1.7915 40.5518 1.7915 40.4443 1.7915C38.2243 1.7915 36.0042 1.7915 33.7842 1.7915C31.5283 1.7915 29.2904 1.7915 27.0703 1.7915C24.8503 1.7915 22.6302 1.7915 20.4102 1.7915C18.1543 1.7915 15.9163 1.7915 13.6963 1.7915C13.3024 1.7915 13.0697 1.82731 12.998 1.89893C12.9264 1.97054 12.8906 2.20329 12.8906 2.59717C12.8906 4.17269 12.8906 5.75716 12.8906 7.35059C12.8906 8.94401 12.8906 10.5285 12.8906 12.104C12.8906 12.2114 12.8906 12.3188 12.8906 12.4263C12.8906 12.5337 12.8727 12.6411 12.8369 12.7485C12.7653 12.9276 12.6579 13.0618 12.5146 13.1514C12.3714 13.2409 12.2103 13.2677 12.0312 13.2319C11.8164 13.2319 11.6553 13.1693 11.5479 13.0439C11.4404 12.9186 11.3688 12.7664 11.333 12.5874C11.333 12.5158 11.333 12.4442 11.333 12.3726C11.333 12.3009 11.333 12.2293 11.333 12.1577C11.333 10.5464 11.333 8.91716 11.333 7.27002C11.333 5.62288 11.333 3.99365 11.333 2.38232C11.333 1.66618 11.512 1.12012 11.8701 0.744141C12.2282 0.368164 12.7832 0.180176 13.5352 0.180176C15.7552 0.215984 17.9932 0.233887 20.249 0.233887C22.5049 0.233887 24.7607 0.233887 27.0166 0.233887ZM31.6357 37.0796C31.3135 37.4377 30.9823 37.8136 30.6421 38.2075C30.3019 38.6014 29.9528 38.9774 29.5947 39.3354C29.2008 39.7293 28.8517 39.8815 28.5474 39.792C28.243 39.7025 28.0013 39.4071 27.8223 38.9058C27.7507 38.7267 27.688 38.5387 27.6343 38.3418C27.5806 38.1449 27.5179 37.9211 27.4463 37.6704C27.3389 37.9569 27.2404 38.2254 27.1509 38.4761C27.0614 38.7267 26.9629 38.9774 26.8555 39.228C26.748 39.5145 26.6048 39.7114 26.4258 39.8188C26.2467 39.9263 26.0319 39.9442 25.7812 39.8726C25.5664 39.8009 25.4232 39.6577 25.3516 39.4429C25.2799 39.228 25.2979 38.9774 25.4053 38.6909C25.6201 38.0106 25.8529 37.3392 26.1035 36.6768C26.3542 36.0143 26.6048 35.3608 26.8555 34.7163C26.9271 34.5015 27.0256 34.3314 27.1509 34.2061C27.2762 34.0807 27.4642 34.0181 27.7148 34.0181C27.9297 34.0181 28.0998 34.0986 28.2251 34.2598C28.3504 34.4209 28.431 34.6089 28.4668 34.8237C28.5384 35.2534 28.6279 35.701 28.7354 36.1665C28.8428 36.632 28.9502 37.1154 29.0576 37.6167C29.3799 37.2228 29.6842 36.8647 29.9707 36.5425C30.2572 36.2202 30.5615 35.8979 30.8838 35.5757C31.2061 35.1818 31.4836 34.9849 31.7163 34.9849C31.9491 34.9849 32.2266 35.1818 32.5488 35.5757C32.7995 35.8263 33.068 36.0859 33.3545 36.3545C33.6409 36.623 33.9274 36.8826 34.2139 37.1333C34.4645 37.3123 34.7062 37.4019 34.939 37.4019C35.1717 37.4019 35.3955 37.2944 35.6104 37.0796C35.7894 36.9364 35.9684 36.7931 36.1475 36.6499C36.3265 36.5067 36.5234 36.3634 36.7383 36.2202C37.2396 35.8621 37.714 35.6921 38.1616 35.71C38.6092 35.7279 39.0479 35.9517 39.4775 36.3813C39.7998 36.6678 40.131 36.8468 40.4712 36.9185C40.8114 36.9901 41.1784 36.9185 41.5723 36.7036C41.8229 36.5962 42.0467 36.5693 42.2437 36.623C42.4406 36.6768 42.5928 36.7931 42.7002 36.9722C42.8076 37.187 42.8255 37.4019 42.7539 37.6167C42.6823 37.8315 42.5212 38.0106 42.2705 38.1538C41.6618 38.4761 41.0173 38.5924 40.3369 38.5029C39.6566 38.4134 39.0479 38.118 38.5107 37.6167C38.3317 37.4377 38.1616 37.3481 38.0005 37.3481C37.8394 37.3481 37.6693 37.4198 37.4902 37.563C37.347 37.7062 37.1859 37.8494 37.0068 37.9927C36.8278 38.1359 36.6667 38.2612 36.5234 38.3687C36.0221 38.7625 35.5208 38.9684 35.0195 38.9863C34.5182 39.0042 34.0169 38.8521 33.5156 38.5298C33.1934 38.3149 32.88 38.0822 32.5757 37.8315C32.2713 37.5809 31.958 37.3302 31.6357 37.0796ZM28.8965 17.5825C30.5436 17.5825 32.1908 17.5825 33.8379 17.5825C35.485 17.5825 37.1322 17.5825 38.7793 17.5825C38.8509 17.5825 38.9315 17.5825 39.021 17.5825C39.1105 17.5825 39.209 17.5825 39.3164 17.5825C39.5312 17.6183 39.7013 17.7078 39.8267 17.8511C39.952 17.9943 40.0146 18.1733 40.0146 18.3882C40.0146 18.5672 39.952 18.7284 39.8267 18.8716C39.7013 19.0148 39.5312 19.1043 39.3164 19.1401C39.2448 19.1401 39.1732 19.1401 39.1016 19.1401C39.0299 19.1401 38.9762 19.1401 38.9404 19.1401C37.2575 19.1401 35.5745 19.1401 33.8916 19.1401C32.2445 19.1401 30.5884 19.1401 28.9233 19.1401C27.2583 19.1401 25.5843 19.1401 23.9014 19.1401C22.2542 19.1401 20.5892 19.1401 18.9062 19.1401C18.8346 19.1401 18.7541 19.1401 18.6646 19.1401C18.575 19.1401 18.4945 19.1401 18.4229 19.1401C18.2438 19.0685 18.0916 18.9701 17.9663 18.8447C17.841 18.7194 17.7962 18.5493 17.832 18.3345C17.832 18.1196 17.8857 17.9495 17.9932 17.8242C18.1006 17.6989 18.2617 17.6183 18.4766 17.5825C18.5482 17.5825 18.6287 17.5825 18.7183 17.5825C18.8078 17.5825 18.9062 17.5825 19.0137 17.5825C20.6608 17.5825 22.3079 17.5825 23.9551 17.5825C25.6022 17.5825 27.2493 17.5825 28.8965 17.5825ZM28.8965 23.813C27.2493 23.813 25.5933 23.813 23.9282 23.813C22.2632 23.813 20.5892 23.813 18.9062 23.813C18.7988 23.813 18.6735 23.804 18.5303 23.7861C18.387 23.7682 18.2796 23.7414 18.208 23.7056C18.1006 23.5981 18.0111 23.4728 17.9395 23.3296C17.8678 23.1864 17.832 23.061 17.832 22.9536C17.8678 22.8462 17.9305 22.7298 18.02 22.6045C18.1095 22.4792 18.2259 22.3807 18.3691 22.3091C18.4408 22.2375 18.5392 22.2017 18.6646 22.2017C18.7899 22.2017 18.9062 22.2017 19.0137 22.2017C20.6608 22.2017 22.3079 22.2017 23.9551 22.2017C25.6022 22.2017 27.2493 22.2017 28.8965 22.2017C30.5436 22.2017 32.1908 22.2017 33.8379 22.2017C35.485 22.2017 37.1322 22.2017 38.7793 22.2017C38.8509 22.2017 38.9136 22.2017 38.9673 22.2017C39.021 22.2017 39.0658 22.2017 39.1016 22.2017C39.3522 22.2375 39.5581 22.327 39.7192 22.4702C39.8804 22.6134 39.9788 22.7925 40.0146 23.0073C40.0146 23.258 39.9251 23.4549 39.7461 23.5981C39.5671 23.7414 39.3522 23.813 39.1016 23.813C37.3828 23.813 35.673 23.813 33.9722 23.813C32.2713 23.813 30.5794 23.813 28.8965 23.813ZM24.3311 26.5522C25.2262 26.5522 26.1304 26.5522 27.0435 26.5522C27.9565 26.5522 28.8607 26.5702 29.7559 26.606C29.8991 26.606 30.0513 26.6328 30.2124 26.6865C30.3735 26.7402 30.5078 26.8029 30.6152 26.8745C30.7943 27.0535 30.848 27.2773 30.7764 27.5459C30.7048 27.8145 30.5436 28.0024 30.293 28.1099C30.1855 28.1457 30.0781 28.1636 29.9707 28.1636C29.8633 28.1636 29.7559 28.1636 29.6484 28.1636C27.8581 28.1636 26.0767 28.1636 24.3042 28.1636C22.5317 28.1636 20.7503 28.1636 18.96 28.1636C18.9242 28.1636 18.8794 28.1636 18.8257 28.1636C18.772 28.1636 18.7272 28.1636 18.6914 28.1636C18.4049 28.1278 18.1812 28.0382 18.02 27.895C17.8589 27.7518 17.7962 27.5548 17.832 27.3042C17.832 27.0894 17.9036 26.9103 18.0469 26.7671C18.1901 26.6239 18.4049 26.5522 18.6914 26.5522C19.4434 26.5522 20.1864 26.5522 20.9204 26.5522C21.6545 26.5522 22.3796 26.5522 23.0957 26.5522C23.3105 26.5522 23.5164 26.5522 23.7134 26.5522C23.9103 26.5522 24.1162 26.5522 24.3311 26.5522Z" fill="#EBD67B"/>
</svg>
