<svg width="54" height="56" viewBox="0 0 54 56" fill="none" xmlns="http://www.w3.org/2000/svg">
<path d="M53.9331 37.3071C53.7183 38.0233 53.3691 38.5783 52.8857 38.9722C52.4023 39.366 51.8026 39.6525 51.0864 39.8315C50.6567 39.939 50.2271 40.0643 49.7974 40.2075C49.3677 40.3507 48.938 40.494 48.5083 40.6372C48.3651 40.7088 48.2308 40.7894 48.1055 40.8789C47.9801 40.9684 47.8817 41.0669 47.8101 41.1743C46.9865 42.4992 46.0286 43.6629 44.9365 44.6655C43.8444 45.6681 42.618 46.5454 41.2573 47.2974C41.1141 47.369 40.9977 47.4585 40.9082 47.5659C40.8187 47.6733 40.756 47.8166 40.7202 47.9956C40.577 48.855 40.4248 49.7233 40.2637 50.6006C40.1025 51.4779 39.9325 52.3641 39.7534 53.2593C39.646 53.7964 39.4132 54.2171 39.0552 54.5215C38.6971 54.8258 38.2495 54.978 37.7124 54.978C37.1395 54.978 36.5666 54.978 35.9937 54.978C35.4207 54.978 34.8478 54.978 34.2749 54.978C33.7378 54.9422 33.2902 54.79 32.9321 54.5215C32.5741 54.2529 32.3413 53.8501 32.2339 53.313C32.1623 52.8475 32.0817 52.382 31.9922 51.9165C31.9027 51.451 31.8042 50.9855 31.6968 50.52C30.3361 50.5558 28.9665 50.5916 27.5879 50.6274C26.2093 50.6632 24.8218 50.6812 23.4253 50.6812C23.3537 51.0392 23.2731 51.4331 23.1836 51.8628C23.0941 52.2925 23.0135 52.7043 22.9419 53.0981C22.7987 53.7427 22.557 54.2082 22.2168 54.4946C21.8766 54.7811 21.4022 54.9422 20.7935 54.978C20.2563 54.978 19.7103 54.978 19.1553 54.978C18.6003 54.978 18.0542 54.978 17.5171 54.978C16.9084 54.978 16.425 54.8258 16.0669 54.5215C15.7088 54.2171 15.4761 53.7606 15.3687 53.1519C15.2254 52.3641 15.0732 51.5584 14.9121 50.7349C14.751 49.9113 14.5809 49.0877 14.4019 48.2642C14.4019 48.1567 14.3571 48.0493 14.2676 47.9419C14.1781 47.8345 14.0975 47.745 14.0259 47.6733C11.8774 46.4559 10.1497 44.9341 8.84277 43.1079C7.53581 41.2817 6.68538 39.1512 6.2915 36.7163C6.18408 36.0002 6.11247 35.284 6.07666 34.5679C6.04085 33.8517 6.00505 33.1177 5.96924 32.3657C5.86182 32.2941 5.7723 32.2941 5.70068 32.3657C5.62907 32.4373 5.55745 32.5448 5.48584 32.688C5.05615 33.3325 4.5638 33.8875 4.00879 34.353C3.45378 34.8185 2.80029 35.1587 2.04834 35.3735C1.90511 35.4093 1.76188 35.4272 1.61865 35.4272C1.47542 35.4272 1.33219 35.4452 1.18896 35.481C0.974121 35.5168 0.768229 35.481 0.571289 35.3735C0.374349 35.2661 0.222168 35.105 0.114746 34.8901C0.114746 34.8185 0.114746 34.738 0.114746 34.6484C0.114746 34.5589 0.114746 34.4604 0.114746 34.353C0.257975 34.2098 0.410156 34.0934 0.571289 34.0039C0.732422 33.9144 0.92041 33.8517 1.13525 33.8159C1.74398 33.7443 2.28109 33.5653 2.74658 33.2788C3.21208 32.9923 3.62386 32.5985 3.98193 32.0972C3.87451 32.0614 3.78499 32.0345 3.71338 32.0166C3.64176 31.9987 3.57015 31.9718 3.49854 31.936C3.24788 31.8644 3.00618 31.7839 2.77344 31.6943C2.54069 31.6048 2.31689 31.5063 2.10205 31.3989C1.42171 31.0767 0.992025 30.638 0.812988 30.083C0.633952 29.528 0.741374 28.964 1.13525 28.3911C1.52913 27.7466 2.03939 27.3527 2.66602 27.2095C3.29264 27.0662 3.89242 27.2095 4.46533 27.6392C4.96663 27.9972 5.33366 28.409 5.56641 28.8745C5.79915 29.34 5.95133 29.8592 6.02295 30.4321C6.02295 30.5037 6.0319 30.5664 6.0498 30.6201C6.06771 30.6738 6.11247 30.7365 6.18408 30.8081C6.21989 30.7365 6.24674 30.6649 6.26465 30.5933C6.28255 30.5216 6.2915 30.45 6.2915 30.3784C6.72119 28.0509 7.54476 26.0099 8.76221 24.2554C9.97966 22.5008 11.6089 21.0148 13.6499 19.7974C13.9006 19.6541 14.1333 19.6004 14.3481 19.6362C14.563 19.672 14.742 19.7974 14.8853 20.0122C14.9927 20.2271 15.0106 20.4329 14.939 20.6299C14.8674 20.8268 14.6883 20.9969 14.4019 21.1401C13.077 21.9637 11.9132 22.9305 10.9106 24.0405C9.90804 25.1506 9.13818 26.4396 8.60107 27.9077C7.84912 30.092 7.50895 32.2493 7.58057 34.3799C7.65218 36.5104 8.20719 38.6141 9.24561 40.6909C9.85433 41.9084 10.6242 42.9736 11.5552 43.8867C12.4862 44.7998 13.5425 45.5965 14.7241 46.2769C15.118 46.4917 15.4134 46.7424 15.6104 47.0288C15.8073 47.3153 15.9416 47.6733 16.0132 48.103C16.1206 48.8908 16.2638 49.6785 16.4429 50.4663C16.6219 51.2541 16.783 52.0597 16.9263 52.8833C16.9621 53.0623 17.0247 53.1966 17.1143 53.2861C17.2038 53.3757 17.3381 53.4204 17.5171 53.4204C18.0542 53.3846 18.5913 53.3667 19.1284 53.3667C19.6655 53.3667 20.2026 53.3846 20.7397 53.4204C20.9546 53.4204 21.1068 53.3757 21.1963 53.2861C21.2858 53.1966 21.3485 53.0444 21.3843 52.8296C21.4559 52.3999 21.5365 51.9702 21.626 51.5405C21.7155 51.1108 21.7961 50.6812 21.8677 50.2515C21.9751 49.7502 22.1452 49.401 22.3779 49.2041C22.6107 49.0072 22.9956 48.9445 23.5327 49.0161C24.8934 49.1235 26.263 49.1683 27.6416 49.1504C29.0202 49.1325 30.3898 49.0161 31.7505 48.8013C32.1444 48.7655 32.4666 48.846 32.7173 49.043C32.9679 49.2399 33.1291 49.5532 33.2007 49.9829C33.3081 50.4484 33.4066 50.9139 33.4961 51.3794C33.5856 51.8449 33.6662 52.3104 33.7378 52.7759C33.7736 52.9907 33.8452 53.1519 33.9526 53.2593C34.0601 53.3667 34.2212 53.4204 34.436 53.4204C34.9731 53.3846 35.5013 53.3667 36.0205 53.3667C36.5397 53.3667 37.05 53.3846 37.5513 53.4204C37.8019 53.4204 37.972 53.3667 38.0615 53.2593C38.151 53.1519 38.2137 52.9907 38.2495 52.7759C38.4285 51.8449 38.6076 50.9229 38.7866 50.0098C38.9657 49.0967 39.1447 48.1746 39.3237 47.2437C39.3595 46.993 39.4401 46.7782 39.5654 46.5991C39.6908 46.4201 39.8787 46.259 40.1294 46.1157C41.4543 45.3996 42.6628 44.5671 43.7549 43.6182C44.847 42.6693 45.769 41.5324 46.521 40.2075C46.7 39.9211 46.9149 39.6883 47.1655 39.5093C47.4162 39.3302 47.7026 39.2049 48.0249 39.1333C48.5262 38.9543 49.0365 38.7842 49.5557 38.623C50.0749 38.4619 50.5851 38.2918 51.0864 38.1128C51.5877 37.9696 51.9279 37.7816 52.1069 37.5488C52.286 37.3161 52.3755 36.9491 52.3755 36.4478C52.3755 35.9106 52.3755 35.3735 52.3755 34.8364C52.3755 34.2993 52.3755 33.7443 52.3755 33.1714C52.3755 32.7775 52.286 32.4642 52.1069 32.2314C51.9279 31.9987 51.6593 31.8286 51.3013 31.7212C50.979 31.6138 50.6567 31.5063 50.3345 31.3989C50.0122 31.2915 49.7078 31.1841 49.4214 31.0767C48.9201 30.9334 48.5173 30.7096 48.2129 30.4053C47.9085 30.1009 47.6847 29.716 47.5415 29.2505C47.3267 28.5343 47.0402 27.854 46.6821 27.2095C46.3241 26.5649 45.9302 25.9562 45.5005 25.3833C45.4289 25.3117 45.3662 25.249 45.3125 25.1953C45.2588 25.1416 45.1961 25.061 45.1245 24.9536C45.0529 25.061 44.9992 25.1595 44.9634 25.249C44.9276 25.3385 44.8918 25.4191 44.856 25.4907C44.4979 26.4217 43.9697 27.0931 43.2715 27.5049C42.5732 27.9167 41.7407 28.1226 40.7739 28.1226C38.9836 28.1226 37.4976 27.5496 36.3159 26.4038C35.1343 25.258 34.5256 23.7899 34.4897 21.9995C34.4897 21.534 34.5076 21.0596 34.5435 20.5762C34.5793 20.0928 34.6151 19.6004 34.6509 19.0991C34.5076 19.0633 34.3286 19.0186 34.1138 18.9648C33.8989 18.9111 33.6841 18.8664 33.4692 18.8306C33.4334 18.8306 33.3797 18.8395 33.3081 18.8574C33.2365 18.8753 33.2007 18.9022 33.2007 18.938C32.771 19.5467 32.3055 20.0928 31.8042 20.5762C31.3029 21.0596 30.73 21.5161 30.0854 21.9458C30.3361 22.0174 30.5599 22.089 30.7568 22.1606C30.9538 22.2323 31.1597 22.3039 31.3745 22.3755C31.661 22.4471 31.8579 22.5724 31.9653 22.7515C32.0728 22.9305 32.0907 23.1453 32.019 23.396C31.9474 23.6108 31.8132 23.763 31.6162 23.8525C31.4193 23.9421 31.1776 23.9331 30.8911 23.8257C29.8527 23.5034 28.7964 23.2528 27.7222 23.0737C26.6479 22.8947 25.5737 22.8052 24.4995 22.8052C23.4253 22.8052 22.36 22.8857 21.3037 23.0469C20.2474 23.208 19.2179 23.4497 18.2153 23.772C18.1437 23.772 18.0632 23.7899 17.9736 23.8257C17.8841 23.8615 17.8035 23.8794 17.7319 23.8794C17.4813 23.951 17.2843 23.9421 17.1411 23.8525C16.9979 23.763 16.8726 23.6108 16.7651 23.396C16.6935 23.217 16.7025 23.029 16.792 22.832C16.8815 22.6351 17.0337 22.5008 17.2485 22.4292C17.4634 22.3576 17.6872 22.286 17.9199 22.2144C18.1527 22.1427 18.3944 22.0711 18.645 21.9995C18.5734 21.9279 18.5107 21.8652 18.457 21.8115C18.4033 21.7578 18.3407 21.7131 18.269 21.6772C16.4787 20.424 15.1896 18.7858 14.4019 16.7627C13.6141 14.7396 13.4709 12.6717 13.9722 10.5591C14.4377 8.41064 15.4671 6.59343 17.0605 5.10742C18.654 3.62142 20.5428 2.69938 22.7271 2.34131C24.9471 1.98323 27.0776 2.3055 29.1187 3.30811C31.1597 4.31071 32.6994 5.79671 33.7378 7.76611C33.9526 8.08838 34.0422 8.36589 34.0063 8.59863C33.9705 8.83138 33.8273 9.01937 33.5767 9.1626C33.3618 9.27002 33.1559 9.27897 32.959 9.18945C32.762 9.09993 32.5741 8.89404 32.395 8.57178C31.464 6.96045 30.3003 5.75195 28.9038 4.94629C27.5073 4.14062 25.8781 3.7557 24.0161 3.7915C21.9393 3.82731 20.0773 4.56136 18.4302 5.99365C16.783 7.42595 15.7804 9.1805 15.4224 11.2573C15.0285 13.37 15.3507 15.3841 16.3892 17.2998C17.4276 19.2155 18.9315 20.5672 20.9009 21.355C21.0441 21.3908 21.1784 21.4087 21.3037 21.4087C21.429 21.4087 21.5633 21.4087 21.7065 21.4087C22.6017 21.3013 23.4969 21.2476 24.3921 21.2476C25.2873 21.2476 26.1825 21.3013 27.0776 21.4087C27.1851 21.4087 27.3193 21.4087 27.4805 21.4087C27.6416 21.4087 27.7938 21.3729 27.937 21.3013C29.5841 20.5493 30.8732 19.5378 31.8042 18.2666C32.7352 16.9954 33.2902 15.4468 33.4692 13.6206C33.4692 13.549 33.4692 13.4774 33.4692 13.4058C33.4692 13.3341 33.4871 13.2625 33.5229 13.1909C33.5946 12.9761 33.693 12.8149 33.8184 12.7075C33.9437 12.6001 34.1317 12.5643 34.3823 12.6001C34.5972 12.6359 34.7673 12.7254 34.8926 12.8687C35.0179 13.0119 35.0627 13.1909 35.0269 13.4058C34.9194 13.9429 34.812 14.4979 34.7046 15.0708C34.5972 15.6437 34.4718 16.1987 34.3286 16.7358C34.3286 16.8433 34.3107 16.9417 34.2749 17.0312C34.2391 17.1208 34.1854 17.2192 34.1138 17.3267C34.5076 17.3983 34.8836 17.4878 35.2417 17.5952C35.5998 17.7026 35.9757 17.631 36.3696 17.3804C37.3722 16.9149 38.4017 16.4762 39.458 16.0645C40.5143 15.6527 41.5796 15.3215 42.6538 15.0708C42.7612 15.0708 42.8507 15.0618 42.9224 15.0439C42.994 15.026 43.0656 15.0171 43.1372 15.0171C44.0324 14.9097 44.6948 15.0171 45.1245 15.3394C45.5542 15.6616 45.8407 16.2703 45.9839 17.1655C46.1271 18.0965 46.1629 19.0275 46.0913 19.9585C46.0197 20.8895 45.8944 21.8205 45.7153 22.7515C45.7153 22.8589 45.7332 22.9842 45.769 23.1274C45.8049 23.2707 45.8586 23.3781 45.9302 23.4497C46.6105 24.2375 47.2192 25.07 47.7563 25.9473C48.2935 26.8245 48.7231 27.7645 49.0454 28.7671C49.117 28.9819 49.2244 29.161 49.3677 29.3042C49.5109 29.4474 49.6899 29.5548 49.9048 29.6265C50.1196 29.6623 50.3255 29.716 50.5225 29.7876C50.7194 29.8592 50.9253 29.9129 51.1401 29.9487C51.8205 30.1278 52.4113 30.4142 52.9126 30.8081C53.4139 31.202 53.7541 31.757 53.9331 32.4731C53.9331 33.2967 53.9331 34.1113 53.9331 34.917C53.9331 35.7227 53.9331 36.5194 53.9331 37.3071ZM44.5337 19.1528C44.4979 18.8306 44.471 18.5083 44.4531 18.186C44.4352 17.8638 44.4084 17.5594 44.3726 17.2729C44.3009 16.8791 44.2114 16.6463 44.104 16.5747C43.9966 16.5031 43.7459 16.5031 43.3521 16.5747C42.2062 16.7896 41.0962 17.1118 40.022 17.5415C38.9478 17.9712 37.8735 18.4367 36.7993 18.938C36.6919 18.9738 36.5845 19.0633 36.4771 19.2065C36.3696 19.3498 36.3159 19.493 36.3159 19.6362C36.2443 20.1017 36.1816 20.5672 36.1279 21.0327C36.0742 21.4982 36.0653 21.9458 36.1011 22.3755C36.1727 23.4497 36.5218 24.3449 37.1484 25.061C37.7751 25.7772 38.6076 26.2248 39.646 26.4038C41.0067 26.6545 41.9377 26.6007 42.439 26.2427C42.9403 25.8846 43.3521 25.2043 43.6743 24.2017C43.9608 23.3781 44.1667 22.5456 44.292 21.7041C44.4173 20.8626 44.4979 20.0122 44.5337 19.1528ZM4.46533 30.647C4.39372 30.2173 4.27734 29.8503 4.11621 29.5459C3.95508 29.2415 3.71338 28.9998 3.39111 28.8208C3.17627 28.7134 2.98828 28.6955 2.82715 28.7671C2.66602 28.8387 2.53174 28.9998 2.42432 29.2505C2.31689 29.4295 2.29899 29.5817 2.37061 29.707C2.44222 29.8324 2.54964 29.9129 2.69287 29.9487C2.97933 30.092 3.25684 30.2083 3.52539 30.2979C3.79395 30.3874 4.10726 30.5037 4.46533 30.647ZM24.1772 7.81982C24.2489 7.7124 24.3294 7.59603 24.4189 7.4707C24.5085 7.34538 24.6069 7.28271 24.7144 7.28271C24.786 7.28271 24.8665 7.34538 24.9561 7.4707C25.0456 7.59603 25.1261 7.7303 25.1978 7.87354C25.4842 7.94515 25.7707 8.01677 26.0571 8.08838C26.3436 8.15999 26.6121 8.23161 26.8628 8.30322C27.0418 8.37484 27.1761 8.48226 27.2656 8.62549C27.3551 8.76872 27.382 8.94775 27.3462 9.1626C27.2746 9.37744 27.1672 9.52962 27.0239 9.61914C26.8807 9.70866 26.6838 9.69971 26.4331 9.59229C26.2541 9.52067 26.0571 9.44905 25.8423 9.37744C25.6274 9.30583 25.3947 9.21631 25.144 9.10889C25.144 9.61019 25.144 10.0846 25.144 10.5322C25.144 10.9798 25.144 11.4185 25.144 11.8481C25.144 11.884 25.1709 11.9287 25.2246 11.9824C25.2783 12.0361 25.3231 12.063 25.3589 12.063C25.4305 12.1346 25.52 12.1883 25.6274 12.2241C25.7349 12.2599 25.8423 12.2957 25.9497 12.3315C26.5584 12.618 27.006 13.0119 27.2925 13.5132C27.5789 14.0145 27.6864 14.5874 27.6147 15.2319C27.5431 15.9123 27.3372 16.4494 26.9971 16.8433C26.6569 17.2371 26.1466 17.5236 25.4663 17.7026C25.3947 17.7384 25.341 17.7563 25.3052 17.7563C25.2694 17.7563 25.2336 17.7563 25.1978 17.7563C25.1978 17.7922 25.2067 17.819 25.2246 17.8369C25.2425 17.8548 25.2694 17.8638 25.3052 17.8638C25.1978 17.9712 25.0903 18.0786 24.9829 18.186C24.8755 18.2935 24.7681 18.4188 24.6606 18.562C24.589 18.4546 24.5085 18.3561 24.4189 18.2666C24.3294 18.1771 24.2489 18.0786 24.1772 17.9712C24.1772 17.9354 24.1862 17.9085 24.2041 17.8906C24.222 17.8727 24.2489 17.8638 24.2847 17.8638C24.1056 17.828 23.9266 17.8011 23.7476 17.7832C23.5685 17.7653 23.3895 17.7205 23.2104 17.6489C22.9598 17.5415 22.7181 17.4251 22.4854 17.2998C22.2526 17.1745 22.0288 17.0223 21.814 16.8433C21.7065 16.8075 21.626 16.7179 21.5723 16.5747C21.5186 16.4315 21.4917 16.3062 21.4917 16.1987C21.4917 16.0555 21.5365 15.9212 21.626 15.7959C21.7155 15.6706 21.814 15.5542 21.9214 15.4468C21.9572 15.411 22.0467 15.4199 22.1899 15.4736C22.3332 15.5273 22.4406 15.59 22.5122 15.6616C22.7629 15.8407 23.0314 16.0107 23.3179 16.1719C23.6043 16.333 23.9266 16.4136 24.2847 16.4136C24.2847 15.9123 24.2936 15.4199 24.3115 14.9365C24.3294 14.4531 24.3205 13.9608 24.2847 13.4595C24.2847 13.3879 24.2578 13.3252 24.2041 13.2715C24.1504 13.2178 24.0877 13.173 24.0161 13.1372C23.8729 13.0656 23.7118 12.994 23.5327 12.9224C23.3537 12.8507 23.1925 12.7791 23.0493 12.7075C22.548 12.4569 22.1899 12.1346 21.9751 11.7407C21.7603 11.3468 21.6707 10.8813 21.7065 10.3442C21.7423 9.77132 21.9035 9.30583 22.1899 8.94775C22.4764 8.58968 22.8703 8.32113 23.3716 8.14209C23.5148 8.10628 23.658 8.07048 23.8013 8.03467C23.9445 7.99886 24.0877 7.96305 24.231 7.92725C24.231 7.92725 24.222 7.91829 24.2041 7.90039C24.1862 7.88249 24.1772 7.85563 24.1772 7.81982ZM25.0366 13.6206C25.0366 14.0861 25.0366 14.5516 25.0366 15.0171C25.0366 15.4826 25.0366 15.9302 25.0366 16.3599C25.3947 16.3599 25.6722 16.2614 25.8691 16.0645C26.0661 15.8675 26.1825 15.59 26.2183 15.2319C26.2899 14.8381 26.2183 14.5068 26.0034 14.2383C25.7886 13.9697 25.4663 13.7638 25.0366 13.6206ZM24.3921 9.27002C23.9624 9.30583 23.6401 9.4222 23.4253 9.61914C23.2104 9.81608 23.0851 10.0578 23.0493 10.3442C23.0493 10.7023 23.1746 10.9977 23.4253 11.2305C23.6759 11.4632 23.9982 11.5975 24.3921 11.6333C24.3921 11.2394 24.3921 10.8455 24.3921 10.4517C24.3921 10.0578 24.3921 9.6639 24.3921 9.27002ZM42.7075 33.4399C42.063 33.4399 41.4901 33.2161 40.9888 32.7686C40.4875 32.321 40.2189 31.757 40.1831 31.0767C40.1473 30.826 40.201 30.6112 40.3442 30.4321C40.4875 30.2531 40.6665 30.1636 40.8813 30.1636C41.0962 30.1278 41.2842 30.1725 41.4453 30.2979C41.6064 30.4232 41.7049 30.6112 41.7407 30.8618C41.8123 31.2199 41.9287 31.4795 42.0898 31.6406C42.251 31.8018 42.4569 31.8823 42.7075 31.8823C42.994 31.9181 43.2178 31.8465 43.3789 31.6675C43.54 31.4884 43.6564 31.2378 43.728 30.9155C43.7638 30.6649 43.8623 30.4679 44.0234 30.3247C44.1846 30.1815 44.3726 30.1278 44.5874 30.1636C44.8381 30.1994 45.026 30.2979 45.1514 30.459C45.2767 30.6201 45.3215 30.8439 45.2856 31.1304C45.2498 31.7749 44.9813 32.321 44.48 32.7686C43.9787 33.2161 43.3879 33.4399 42.7075 33.4399Z" fill="#EBD67B"/>
</svg>
