<svg width="28" height="29" viewBox="0 0 28 29" fill="none" xmlns="http://www.w3.org/2000/svg">
<path d="M14.0898 0.907471C21.582 0.907471 27.6523 6.97778 27.6523 14.47C27.6523 21.9622 21.582 28.0325 14.0898 28.0325C6.59766 28.0325 0.527344 21.9622 0.527344 14.47C0.527344 6.97778 6.59766 0.907471 14.0898 0.907471ZM12.5094 8.7606L16.6383 12.72H6.65234C5.925 12.72 5.33984 13.3051 5.33984 14.0325V14.9075C5.33984 15.6348 5.925 16.22 6.65234 16.22H16.6383L12.5094 20.1793C11.9789 20.6879 11.968 21.5356 12.4875 22.0551L13.0891 22.6512C13.6031 23.1653 14.4344 23.1653 14.943 22.6512L22.2 15.3997C22.7141 14.8856 22.7141 14.0543 22.2 13.5458L14.943 6.28325C14.4289 5.76919 13.5977 5.76919 13.0891 6.28325L12.4875 6.87935C11.968 7.40435 11.9789 8.252 12.5094 8.7606Z" fill="black"/>
</svg>
